<svg width="371" height="34" viewBox="0 0 371 34" fill="none" xmlns="http://www.w3.org/2000/svg">
<path fill-rule="evenodd" clip-rule="evenodd" d="M48.2927 9.58127C48.9363 10.2248 48.9363 11.2682 48.2927 11.9117L42.8664 17.338L48.2927 22.7644C48.9363 23.4079 48.9363 24.4513 48.2927 25.0948C47.6492 25.7384 46.6058 25.7384 45.9623 25.0948L39.3707 18.5033C38.7272 17.8597 38.7272 16.8164 39.3707 16.1728L45.9623 9.58127C46.6058 8.93773 47.6492 8.93773 48.2927 9.58127Z" fill="white"/>
<path fill-rule="evenodd" clip-rule="evenodd" d="M322.807 25.0948C322.163 24.4513 322.163 23.4079 322.807 22.7644L328.233 17.338L322.807 11.9117C322.163 11.2682 322.163 10.2248 322.807 9.58126C323.45 8.93772 324.494 8.93772 325.137 9.58126L331.729 16.1728C332.372 16.8163 332.372 17.8597 331.729 18.5033L325.137 25.0948C324.494 25.7384 323.45 25.7384 322.807 25.0948Z" fill="white"/>
</svg>
