<svg width="228" height="94" viewBox="0 0 228 94" fill="none" xmlns="http://www.w3.org/2000/svg">
<path d="M35.2207 18.2868C35.2207 18.8624 35.1026 19.3046 34.8663 19.6136C34.6361 19.9226 34.2514 20.0771 33.7122 20.0771C33.2033 20.0771 32.8428 19.9226 32.6307 19.6136C32.4248 19.3046 32.3218 18.8624 32.3218 18.2868V8.6812C32.3218 8.10564 32.4248 7.66338 32.6307 7.3544C32.8428 7.04542 33.2033 6.89093 33.7122 6.89093C34.2514 6.89093 34.6361 7.04542 34.8663 7.3544C35.1026 7.66338 35.2207 8.10564 35.2207 8.6812V18.2868Z" fill="white"/>
<path d="M36.1006 15.4969C36.1006 14.8547 36.2036 14.2489 36.4096 13.6794C36.6216 13.1038 36.9366 12.601 37.3547 12.1708C37.7788 11.7407 38.3059 11.3984 38.936 11.144C39.5721 10.8894 40.3172 10.7623 41.1715 10.7623C41.9894 10.7623 42.7134 10.8804 43.3435 11.1167C43.9735 11.3529 44.5036 11.6831 44.9337 12.1073C45.3639 12.5252 45.6911 13.025 45.9152 13.6066C46.1394 14.1822 46.2515 14.8123 46.2515 15.4969C46.2515 16.1331 46.1454 16.7358 45.9334 17.3054C45.7214 17.8687 45.4033 18.3656 44.9792 18.7957C44.5551 19.2198 44.025 19.559 43.3889 19.8136C42.7527 20.0619 42.0136 20.1861 41.1715 20.1861C40.3415 20.1861 39.6085 20.068 38.9723 19.8317C38.3422 19.5894 37.8121 19.2592 37.382 18.8411C36.9579 18.4171 36.6367 17.9203 36.4187 17.3508C36.2066 16.7752 36.1006 16.1573 36.1006 15.4969ZM39.1268 15.4969C39.1268 15.8968 39.1631 16.2785 39.2358 16.6419C39.3085 16.9993 39.4237 17.3144 39.5812 17.5871C39.7447 17.8597 39.9568 18.0778 40.2173 18.2413C40.4778 18.3988 40.7959 18.4776 41.1715 18.4776C41.5168 18.4776 41.8167 18.405 42.0711 18.2595C42.3317 18.1142 42.5437 17.9112 42.7073 17.6507C42.8769 17.3902 43.0042 17.0781 43.0889 16.7147C43.1738 16.3451 43.2162 15.9392 43.2162 15.4969C43.2162 15.097 43.1768 14.7184 43.0981 14.3609C43.0254 13.9975 42.9073 13.6794 42.7436 13.4067C42.5801 13.1281 42.3681 12.9099 42.1075 12.7525C41.8531 12.5889 41.541 12.5071 41.1715 12.5071C40.8019 12.5071 40.4869 12.5858 40.2264 12.7434C39.9659 12.9009 39.7539 13.1159 39.5902 13.3886C39.4267 13.6612 39.3085 13.9793 39.2358 14.3428C39.1631 14.7063 39.1268 15.091 39.1268 15.4969Z" fill="white"/>
<path d="M53.7111 18.3231C53.5475 18.626 53.3476 18.8835 53.1113 19.0956C52.8811 19.3076 52.6236 19.4833 52.3389 19.6227C52.0602 19.7559 51.7603 19.8559 51.4392 19.9226C51.1241 19.9831 50.8001 20.0134 50.4669 20.0134C49.9094 20.0134 49.4006 19.9135 48.9401 19.7135C48.4797 19.5136 48.0829 19.2258 47.7497 18.8502C47.4225 18.4685 47.1681 18.002 46.9863 17.4507C46.8045 16.8994 46.7136 16.2693 46.7136 15.5605C46.7136 14.8941 46.7985 14.27 46.9681 13.6884C47.1377 13.1068 47.3831 12.601 47.7042 12.1708C48.0314 11.7407 48.4312 11.4014 48.9038 11.153C49.3763 10.9046 49.9156 10.7804 50.5214 10.7804C51.212 10.7804 51.8239 10.9137 52.3571 11.1802C52.8963 11.4468 53.3598 11.883 53.7475 12.4888V12.2526C53.7475 11.8164 53.8656 11.4893 54.1019 11.2711C54.3442 11.047 54.6775 10.9349 55.1016 10.9349C55.356 10.9349 55.571 10.9773 55.7468 11.0621C55.9224 11.1409 56.0618 11.262 56.1647 11.4257C56.2678 11.5832 56.3405 11.7801 56.3829 12.0164C56.4313 12.2465 56.4555 12.5101 56.4555 12.8069V18.8957C56.4555 19.6348 56.3617 20.2951 56.1739 20.8767C55.9921 21.4583 55.7074 21.9491 55.3196 22.349C54.9319 22.7488 54.4351 23.0517 53.8292 23.2577C53.2234 23.4697 52.5025 23.5758 51.6664 23.5758C51.0788 23.5758 50.5577 23.5485 50.1033 23.4939C49.655 23.4456 49.2673 23.3698 48.9401 23.2668C48.613 23.1516 48.3646 23.0245 48.1949 22.8851C48.0314 22.7458 47.9496 22.564 47.9496 22.3399C47.9496 22.2126 47.9677 22.0915 48.0041 21.9763C48.0405 21.8613 48.095 21.7583 48.1676 21.6674C48.2464 21.5825 48.3464 21.5129 48.4676 21.4583C48.5948 21.4099 48.7492 21.3857 48.931 21.3857C49.1249 21.3857 49.3188 21.3978 49.5126 21.422C49.7125 21.4462 49.9186 21.4705 50.1306 21.4947C50.3487 21.525 50.5759 21.5522 50.8122 21.5765C51.0545 21.6007 51.315 21.6129 51.5937 21.6129C51.9269 21.6129 52.2238 21.5795 52.4843 21.5129C52.7448 21.4462 52.9659 21.3281 53.1477 21.1584C53.3294 20.9888 53.4688 20.7616 53.5657 20.4769C53.6627 20.1982 53.7111 19.8408 53.7111 19.4045V18.3231ZM53.7111 15.4969C53.7111 15.0546 53.6778 14.6517 53.6112 14.2883C53.5506 13.9247 53.4445 13.6158 53.2931 13.3613C53.1416 13.1008 52.9387 12.9009 52.6842 12.7615C52.4297 12.6161 52.1117 12.5434 51.73 12.5434C51.3544 12.5434 51.0424 12.6191 50.794 12.7706C50.5517 12.922 50.3578 13.1311 50.2124 13.3976C50.067 13.6642 49.964 13.9762 49.9034 14.3337C49.8489 14.6911 49.8217 15.0728 49.8217 15.4787C49.8217 16.4056 49.9852 17.1024 50.3124 17.5688C50.6395 18.0354 51.1151 18.2686 51.7391 18.2686C52.0299 18.2626 52.2935 18.208 52.5297 18.105C52.772 17.996 52.9811 17.8294 53.1567 17.6052C53.3325 17.381 53.4688 17.0963 53.5657 16.7509C53.6627 16.4056 53.7111 15.9876 53.7111 15.4969Z" fill="white"/>
<path d="M57.29 15.4969C57.29 14.8547 57.393 14.2489 57.599 13.6794C57.8111 13.1038 58.1261 12.601 58.5441 12.1708C58.9682 11.7407 59.4953 11.3984 60.1253 11.144C60.7615 10.8894 61.5067 10.7623 62.361 10.7623C63.1788 10.7623 63.9028 10.8804 64.5328 11.1167C65.1629 11.3529 65.693 11.6831 66.1232 12.1073C66.5533 12.5252 66.8805 13.025 67.1046 13.6066C67.3288 14.1822 67.4409 14.8123 67.4409 15.4969C67.4409 16.1331 67.3349 16.7358 67.1228 17.3054C66.9107 17.8687 66.5927 18.3656 66.1686 18.7957C65.7445 19.2198 65.2144 19.559 64.5783 19.8136C63.9422 20.0619 63.203 20.1861 62.361 20.1861C61.5309 20.1861 60.7978 20.068 60.1617 19.8317C59.5316 19.5894 59.0015 19.2592 58.5714 18.8411C58.1473 18.4171 57.8262 17.9203 57.6081 17.3508C57.396 16.7752 57.29 16.1573 57.29 15.4969ZM60.3162 15.4969C60.3162 15.8968 60.3525 16.2785 60.4253 16.6419C60.498 16.9993 60.613 17.3144 60.7706 17.5871C60.9342 17.8597 61.1462 18.0778 61.4067 18.2413C61.6672 18.3988 61.9853 18.4776 62.361 18.4776C62.7063 18.4776 63.0061 18.405 63.2606 18.2595C63.5211 18.1142 63.7332 17.9112 63.8967 17.6507C64.0664 17.3902 64.1936 17.0781 64.2784 16.7147C64.3632 16.3451 64.4057 15.9392 64.4057 15.4969C64.4057 15.097 64.3663 14.7184 64.2875 14.3609C64.2148 13.9975 64.0966 13.6794 63.9331 13.4067C63.7695 13.1281 63.5574 12.9099 63.297 12.7525C63.0425 12.5889 62.7305 12.5071 62.361 12.5071C61.9914 12.5071 61.6763 12.5858 61.4158 12.7434C61.1553 12.9009 60.9432 13.1159 60.7797 13.3886C60.6161 13.6612 60.498 13.9793 60.4253 14.3428C60.3525 14.7063 60.3162 15.091 60.3162 15.4969Z" fill="white"/>
<path d="M71.3383 7.69973C71.3383 7.89967 71.2928 8.07838 71.2019 8.2359C71.111 8.38736 70.9929 8.51456 70.8475 8.61762C70.7021 8.7206 70.5325 8.79931 70.3386 8.85383C70.1508 8.9023 69.957 8.92657 69.757 8.92657C69.545 8.92657 69.342 8.89927 69.1482 8.84475C68.9603 8.79024 68.7938 8.71153 68.6484 8.60847C68.503 8.49944 68.3878 8.36919 68.303 8.21773C68.2182 8.06627 68.1758 7.8936 68.1758 7.69973C68.1758 7.52404 68.2152 7.36349 68.2939 7.21809C68.3787 7.06663 68.4908 6.93638 68.6301 6.82732C68.7695 6.71827 68.9361 6.63345 69.13 6.57287C69.3239 6.51228 69.5359 6.48199 69.7661 6.48199C69.966 6.48199 70.1599 6.50926 70.3477 6.56378C70.5416 6.61831 70.7112 6.69707 70.8566 6.80006C71.002 6.90306 71.1172 7.03028 71.2019 7.18174C71.2928 7.3332 71.3383 7.50586 71.3383 7.69973ZM71.2019 18.2868C71.2019 18.8624 71.0838 19.3046 70.8475 19.6136C70.6173 19.9226 70.2326 20.0771 69.6934 20.0771C69.1845 20.0771 68.824 19.9226 68.612 19.6136C68.406 19.3046 68.303 18.8624 68.303 18.2868V12.7252C68.303 12.1496 68.406 11.7073 68.612 11.3984C68.824 11.0894 69.1845 10.9349 69.6934 10.9349C70.2326 10.9349 70.6173 11.0894 70.8475 11.3984C71.0838 11.7073 71.2019 12.1496 71.2019 12.7252V18.2868Z" fill="white"/>
<path d="M75.3807 15.4787C75.3807 15.8847 75.4109 16.2632 75.4716 16.6147C75.5382 16.9661 75.6472 17.275 75.7987 17.5416C75.9563 17.8021 76.1622 18.0081 76.4167 18.1595C76.6771 18.311 76.9983 18.3867 77.38 18.3867C77.7313 18.3867 78.0251 18.3141 78.2617 18.1687C78.5036 18.0172 78.6975 17.8112 78.8433 17.5507C78.9883 17.2841 79.0914 16.9721 79.1519 16.6147C79.2186 16.2572 79.252 15.8695 79.252 15.4515C79.252 15.1183 79.2279 14.779 79.1791 14.4337C79.131 14.0822 79.0402 13.7642 78.9069 13.4794C78.7735 13.1947 78.5889 12.9614 78.3524 12.7797C78.1159 12.598 77.8072 12.5071 77.4254 12.5071C77.0437 12.5071 76.7196 12.5676 76.453 12.6888C76.1925 12.81 75.9804 12.9948 75.8169 13.2432C75.6593 13.4915 75.5473 13.8036 75.4807 14.1792C75.414 14.5487 75.3807 14.9819 75.3807 15.4787ZM75.3716 12.7251C75.5231 12.4041 75.7169 12.1224 75.9532 11.88C76.1894 11.6377 76.45 11.4347 76.7348 11.2711C77.0195 11.1076 77.3164 10.9864 77.6253 10.9077C77.9406 10.8228 78.2524 10.7804 78.561 10.7804C79.1186 10.7804 79.6219 10.9046 80.0701 11.153C80.5183 11.4014 80.8998 11.7407 81.2147 12.1708C81.5357 12.5949 81.7816 13.0978 81.9514 13.6794C82.1204 14.2549 82.2057 14.8729 82.2057 15.5332C82.2057 16.2178 82.1142 16.8449 81.9328 17.4144C81.7575 17.9839 81.5055 18.4746 81.1782 18.8865C80.8572 19.2925 80.4694 19.6105 80.015 19.8408C79.5668 20.071 79.0674 20.1861 78.516 20.1861C77.8375 20.1861 77.2315 20.0286 76.6984 19.7135C76.1652 19.3985 75.723 18.9562 75.3716 18.3867V21.6583C75.3716 22.2338 75.2534 22.6761 75.0172 22.9851C74.7869 23.294 74.4023 23.4486 73.863 23.4486C73.3541 23.4486 72.9936 23.294 72.7816 22.9851C72.5756 22.6761 72.4727 22.2338 72.4727 21.6583V12.7251C72.4727 12.1496 72.5756 11.7073 72.7816 11.3984C72.9936 11.0894 73.3541 10.9349 73.863 10.9349C74.4023 10.9349 74.7869 11.0894 75.0172 11.3984C75.2534 11.7073 75.3716 12.1496 75.3716 12.7251Z" fill="white"/>
<path d="M85.403 13.3704C85.403 13.6066 85.5062 13.7914 85.7117 13.9247C85.918 14.052 86.2026 14.158 86.5663 14.2428C86.9113 14.3215 87.2657 14.3973 87.6294 14.47C87.9931 14.5427 88.3475 14.6276 88.6926 14.7245C89.0377 14.8153 89.3618 14.9244 89.6651 15.0516C89.9675 15.1788 90.2343 15.3394 90.4646 15.5332C90.6949 15.7211 90.8764 15.9513 91.0097 16.2239C91.1431 16.4905 91.2098 16.8116 91.2098 17.1872C91.2098 17.6597 91.1129 18.0808 90.919 18.4503C90.7251 18.8139 90.4498 19.1228 90.0923 19.3773C89.7411 19.6318 89.32 19.8287 88.8291 19.968C88.3382 20.1074 87.7962 20.18 87.2021 20.1861C86.6391 20.1861 86.0963 20.1498 85.5752 20.0771C85.0548 20.0104 84.5911 19.9044 84.1848 19.759C83.7854 19.6136 83.4643 19.4349 83.2216 19.2228C82.9797 19.0047 82.8587 18.7503 82.8587 18.4595C82.8587 18.205 82.9401 18.0081 83.1038 17.8687C83.2674 17.7295 83.476 17.6597 83.7311 17.6597C83.828 17.6597 83.9428 17.6779 84.0762 17.7143C84.2096 17.7506 84.3546 17.7961 84.512 17.8506C84.6694 17.9051 84.8362 17.9657 85.0122 18.0324C85.1937 18.0929 85.3813 18.1474 85.5752 18.1959C85.8179 18.2626 86.0661 18.3171 86.3204 18.3595C86.581 18.3958 86.8478 18.414 87.1207 18.414C87.2898 18.414 87.4565 18.3988 87.6201 18.3686C87.7838 18.3322 87.9295 18.2807 88.0567 18.2141C88.1901 18.1414 88.2987 18.0505 88.384 17.9415C88.4685 17.8324 88.5197 17.6991 88.5383 17.5416C88.5561 17.5053 88.5716 17.4689 88.5833 17.4325C88.5957 17.3962 88.6019 17.3538 88.6019 17.3054C88.6019 17.1357 88.5228 16.9842 88.3654 16.8509C88.2141 16.7177 87.9986 16.6116 87.7202 16.5329C87.2533 16.4239 86.8082 16.3239 86.384 16.233C85.9606 16.1421 85.5667 16.0452 85.203 15.9422C84.8455 15.8392 84.5182 15.7211 84.2212 15.5877C83.9304 15.4545 83.6823 15.2909 83.476 15.097C83.2767 14.9032 83.1185 14.6699 83.0037 14.3973C82.8944 14.1247 82.8401 13.7945 82.8401 13.4067C82.8401 12.9887 82.9339 12.6161 83.1216 12.2889C83.3155 11.9557 83.5915 11.6771 83.949 11.4529C84.3065 11.2287 84.7392 11.0591 85.2487 10.944C85.7574 10.8228 86.3328 10.7623 86.9749 10.7623C88.1257 10.7623 89.0012 10.9016 89.6015 11.1802C90.2071 11.4529 90.5103 11.8103 90.5103 12.2527C90.5103 12.501 90.4281 12.6919 90.2645 12.8251C90.1009 12.9524 89.9039 13.016 89.6744 13.016C89.5526 13.016 89.4254 12.9948 89.2921 12.9524C89.1649 12.9039 89.0106 12.8524 88.8291 12.7979C88.6469 12.7373 88.4289 12.6858 88.1746 12.6434C87.9264 12.595 87.617 12.5707 87.2479 12.5707C86.9687 12.5707 86.7144 12.5828 86.484 12.607C86.2599 12.6312 86.0661 12.6737 85.9024 12.7342C85.745 12.7949 85.6209 12.8766 85.5302 12.9797C85.4449 13.0826 85.403 13.2129 85.403 13.3704Z" fill="white"/>
<path d="M94.898 16.7055C94.898 16.9903 94.9344 17.2386 95.0073 17.4507C95.0857 17.6628 95.1919 17.8415 95.3253 17.9869C95.4587 18.1263 95.613 18.2323 95.7882 18.3049C95.9705 18.3716 96.1643 18.405 96.3698 18.405C96.6126 18.405 96.846 18.3686 97.0701 18.2959C97.2942 18.2232 97.4912 18.1111 97.661 17.9596C97.8363 17.8082 97.9759 17.6173 98.079 17.3871C98.1814 17.1569 98.2333 16.8873 98.2333 16.5783V12.7251C98.2333 12.1496 98.3365 11.7073 98.542 11.3984C98.7544 11.0894 99.115 10.9349 99.6237 10.9349C100.163 10.9349 100.547 11.0894 100.778 11.3984C101.014 11.7073 101.132 12.1496 101.132 12.7251V18.2868C101.132 18.8623 101.014 19.3046 100.778 19.6135C100.547 19.9226 100.163 20.077 99.6237 20.077C99.115 20.077 98.7544 19.9226 98.542 19.6135C98.3365 19.3046 98.2333 18.8623 98.2333 18.2868C98.1061 18.5655 97.9394 18.8199 97.7331 19.0502C97.5331 19.2804 97.2973 19.4803 97.0244 19.6499C96.7576 19.8135 96.4614 19.9407 96.1341 20.0316C95.8131 20.1225 95.4641 20.1679 95.0888 20.1679C94.6832 20.1679 94.2924 20.0982 93.9162 19.9589C93.5471 19.8135 93.2199 19.6014 92.9353 19.3227C92.6507 19.0381 92.4234 18.6866 92.2536 18.2686C92.0838 17.8506 91.9993 17.3629 91.9993 16.8055V12.7251C91.9993 12.1496 92.1024 11.7073 92.3079 11.3984C92.5204 11.0894 92.8802 10.9349 93.3897 10.9349C93.9287 10.9349 94.3133 11.0894 94.5436 11.3984C94.7801 11.7073 94.898 12.1496 94.898 12.7251V16.7055Z" fill="white"/>
<path d="M102.448 12.7251C102.448 12.1496 102.551 11.7073 102.757 11.3984C102.969 11.0894 103.33 10.9349 103.838 10.9349C104.378 10.9349 104.763 11.0894 104.993 11.3984C105.229 11.7073 105.348 12.1496 105.348 12.7251C105.468 12.4343 105.632 12.1708 105.838 11.9345C106.05 11.6922 106.29 11.4862 106.556 11.3166C106.829 11.147 107.123 11.0167 107.437 10.9258C107.752 10.8289 108.08 10.7804 108.419 10.7804C108.734 10.7804 109.043 10.8228 109.346 10.9077C109.655 10.9864 109.94 11.1166 110.2 11.2984C110.466 11.4741 110.7 11.6982 110.9 11.9709C111.1 12.2435 111.254 12.5707 111.364 12.9523C111.551 12.5465 111.772 12.2042 112.027 11.9255C112.281 11.6468 112.557 11.4226 112.853 11.253C113.15 11.0833 113.46 10.9622 113.781 10.8894C114.108 10.8168 114.435 10.7804 114.762 10.7804C115.15 10.7804 115.519 10.8501 115.871 10.9894C116.228 11.1287 116.54 11.3408 116.807 11.6256C117.08 11.9042 117.294 12.2587 117.452 12.6888C117.616 13.1129 117.697 13.6097 117.697 14.1792V18.2868C117.697 18.8623 117.579 19.3046 117.343 19.6135C117.113 19.9226 116.728 20.077 116.189 20.077C115.68 20.077 115.319 19.9226 115.108 19.6135C114.901 19.3046 114.798 18.8623 114.798 18.2868V14.3064C114.798 14.0338 114.762 13.7914 114.69 13.5794C114.617 13.3613 114.514 13.1796 114.38 13.0342C114.253 12.8827 114.102 12.7706 113.926 12.6979C113.751 12.6191 113.562 12.5797 113.363 12.5797C113.114 12.5797 112.878 12.6191 112.654 12.6979C112.43 12.7766 112.233 12.8978 112.063 13.0614C111.9 13.225 111.766 13.434 111.663 13.6884C111.566 13.9429 111.518 14.2489 111.518 14.6063V18.2868C111.518 18.8623 111.399 19.3046 111.164 19.6135C110.933 19.9226 110.549 20.077 110.009 20.077C109.5 20.077 109.14 19.9226 108.928 19.6135C108.722 19.3046 108.618 18.8623 108.618 18.2868V14.479C108.618 13.8551 108.488 13.3825 108.228 13.0614C107.973 12.7403 107.625 12.5797 107.183 12.5797C106.922 12.5797 106.68 12.6222 106.456 12.707C106.232 12.7918 106.038 12.916 105.874 13.0796C105.71 13.2432 105.58 13.4461 105.483 13.6884C105.392 13.9308 105.348 14.2095 105.348 14.5245V18.2868C105.348 18.8623 105.229 19.3046 104.993 19.6135C104.763 19.9226 104.378 20.077 103.838 20.077C103.33 20.077 102.969 19.9226 102.757 19.6135C102.551 19.3046 102.448 18.8623 102.448 18.2868V12.7251Z" fill="white"/>
<path d="M13.4226 18.5261C10.8529 18.5261 8.76978 16.443 8.76978 13.8733C8.76978 11.3036 10.8529 9.2204 13.4226 9.2204C15.9923 9.2204 18.0755 11.3036 18.0755 13.8733C18.0755 16.443 15.9923 18.5261 13.4226 18.5261Z" fill="white"/>
<path d="M4.40869 15.4626C3.06033 15.7004 2.1361 17.0029 2.6537 18.2705C3.37632 20.0401 4.52916 21.6168 6.02375 22.8489C8.16089 24.6105 10.8564 25.5519 13.6257 25.5036C16.3949 25.4553 19.056 24.4204 21.1304 22.5851C22.581 21.3017 23.6782 19.6857 24.3386 17.892C24.8117 16.6071 23.8425 15.3376 22.4867 15.1471C21.1309 14.9565 19.9135 15.9434 19.2438 17.1376C18.8808 17.7849 18.4096 18.3722 17.845 18.8717C16.6548 19.9247 15.128 20.5184 13.5392 20.5462C11.9503 20.5739 10.4037 20.0338 9.17754 19.023C8.59585 18.5435 8.10443 17.9731 7.71904 17.3388C7.00809 16.1687 5.75705 15.2249 4.40869 15.4626Z" fill="white"/>
<path d="M24.9646 15.3269C25.024 14.8506 25.0546 14.3655 25.0546 13.8732C25.0546 7.44898 19.8467 2.24109 13.4224 2.24109C6.99817 2.24109 1.79028 7.44898 1.79028 13.8732C1.79028 14.505 1.84065 15.125 1.93759 15.7295C2.47188 14.9981 3.30577 14.4759 4.20648 14.3171C5.18101 14.1453 6.06671 14.3816 6.81558 14.8234C6.77134 14.5131 6.74845 14.1958 6.74845 13.8732C6.74845 10.1873 9.73651 7.19925 13.4224 7.19925C17.1083 7.19925 20.0964 10.1873 20.0964 13.8732C20.0964 14.1163 20.0834 14.3563 20.0581 14.5926C20.7912 14.1247 21.6682 13.8574 22.6483 13.9952C23.5538 14.1225 24.4051 14.6149 24.9646 15.3269Z" fill="white"/>
<path d="M3.73483 51.7725V65.831H1.8713V51.7725H3.73483ZM9.62474 58.0969V59.6224H3.32929V58.0969H9.62474ZM10.5806 51.7725V53.298H3.32929V51.7725H10.5806ZM13.6708 57.0251V65.831H11.8845V55.3836H13.6225L13.6708 57.0251ZM16.9344 55.3257L16.9247 56.9865C16.7767 56.9543 16.6351 56.935 16.4999 56.9285C16.3712 56.9157 16.2231 56.9092 16.0557 56.9092C15.6438 56.9092 15.2801 56.9736 14.9647 57.1023C14.6492 57.2311 14.3821 57.4113 14.1632 57.6431C13.9444 57.8748 13.7706 58.1516 13.6418 58.4734C13.5195 58.7888 13.4391 59.1365 13.4005 59.5162L12.8984 59.8059C12.8984 59.1751 12.9595 58.5829 13.0818 58.0293C13.2106 57.4757 13.4069 56.9865 13.6708 56.5616C13.9347 56.1303 14.2695 55.7956 14.675 55.5574C15.087 55.3128 15.5762 55.1905 16.1426 55.1905C16.2714 55.1905 16.4194 55.2066 16.5868 55.2388C16.7542 55.2646 16.87 55.2935 16.9344 55.3257ZM22.3323 66.0241C21.6049 66.0241 20.9451 65.9018 20.3529 65.6572C19.7671 65.4061 19.2618 65.0553 18.8369 64.6047C18.4185 64.1541 18.0967 63.6199 17.8714 63.0019C17.6461 62.3839 17.5334 61.7081 17.5334 60.9742V60.5687C17.5334 59.719 17.659 58.9627 17.91 58.2996C18.1611 57.6302 18.5022 57.0637 18.9335 56.6002C19.3648 56.1368 19.854 55.786 20.4011 55.5478C20.9483 55.3096 21.5148 55.1905 22.1005 55.1905C22.8472 55.1905 23.4909 55.3193 24.0316 55.5768C24.5788 55.8342 25.0262 56.1947 25.3738 56.6582C25.7214 57.1152 25.9789 57.6559 26.1462 58.2803C26.3136 58.8983 26.3973 59.5742 26.3973 60.308V61.1094H18.5956V59.6514H24.611V59.5162C24.5852 59.0528 24.4887 58.6022 24.3213 58.1645C24.1604 57.7267 23.9029 57.3663 23.5489 57.083C23.1948 56.7998 22.7121 56.6582 22.1005 56.6582C21.695 56.6582 21.3216 56.7451 20.9805 56.9189C20.6393 57.0862 20.3464 57.3373 20.1018 57.672C19.8572 58.0067 19.6673 58.4155 19.5321 58.8983C19.397 59.3811 19.3294 59.9379 19.3294 60.5687V60.9742C19.3294 61.4699 19.397 61.9366 19.5321 62.3743C19.6738 62.8056 19.8765 63.1854 20.1404 63.5137C20.4108 63.8419 20.7359 64.0994 21.1157 64.2861C21.5019 64.4728 21.9396 64.5661 22.4288 64.5661C23.0597 64.5661 23.5939 64.4374 24.0316 64.1799C24.4694 63.9224 24.8524 63.578 25.1807 63.1467L26.2621 64.0061C26.0368 64.3473 25.7503 64.6723 25.4027 64.9813C25.0551 65.2903 24.6271 65.5413 24.1185 65.7344C23.6165 65.9275 23.021 66.0241 22.3323 66.0241ZM34.6725 63.8033V51H36.4684V65.831H34.827L34.6725 63.8033ZM27.6432 60.7232V60.5204C27.6432 59.7222 27.7398 58.9981 27.9329 58.3479C28.1324 57.6913 28.4125 57.1281 28.7729 56.6582C29.1398 56.1883 29.5743 55.8278 30.0764 55.5768C30.585 55.3193 31.1514 55.1905 31.7758 55.1905C32.4324 55.1905 33.0053 55.3064 33.4945 55.5381C33.9902 55.7634 34.4086 56.0949 34.7497 56.5327C35.0973 56.9639 35.3709 57.4853 35.5705 58.0969C35.77 58.7084 35.9084 59.4004 35.9857 60.1728V61.0611C35.9148 61.8271 35.7765 62.5159 35.5705 63.1274C35.3709 63.7389 35.0973 64.2604 34.7497 64.6916C34.4086 65.1229 33.9902 65.4544 33.4945 65.6862C32.9989 65.9115 32.4195 66.0241 31.7565 66.0241C31.145 66.0241 30.585 65.8921 30.0764 65.6282C29.5743 65.3643 29.1398 64.9942 28.7729 64.5178C28.4125 64.0415 28.1324 63.4815 27.9329 62.8378C27.7398 62.1876 27.6432 61.4828 27.6432 60.7232ZM29.4392 60.5204V60.7232C29.4392 61.2446 29.4907 61.7338 29.5937 62.1908C29.7031 62.6479 29.8704 63.0502 30.0957 63.3978C30.321 63.7454 30.6075 64.019 30.9551 64.2185C31.3027 64.4116 31.7179 64.5082 32.2007 64.5082C32.7929 64.5082 33.2789 64.3827 33.6587 64.1316C34.0449 63.8806 34.3539 63.5491 34.5856 63.1371C34.8173 62.7251 34.9976 62.2777 35.1263 61.795V59.468C35.0491 59.1139 34.9364 58.7728 34.7884 58.4445C34.6467 58.1097 34.4601 57.8136 34.2283 57.5562C34.003 57.2922 33.723 57.083 33.3883 56.9285C33.06 56.7741 32.6706 56.6968 32.22 56.6968C31.7308 56.6968 31.3091 56.7998 30.9551 57.0058C30.6075 57.2053 30.321 57.4821 30.0957 57.8362C29.8704 58.1838 29.7031 58.5893 29.5937 59.0528C29.4907 59.5098 29.4392 59.999 29.4392 60.5204ZM45.4389 63.8033V51H47.2348V65.831H45.5934L45.4389 63.8033ZM38.4096 60.7232V60.5204C38.4096 59.7222 38.5062 58.9981 38.6993 58.3479C38.8988 57.6913 39.1788 57.1281 39.5393 56.6582C39.9062 56.1883 40.3407 55.8278 40.8428 55.5768C41.3513 55.3193 41.9178 55.1905 42.5422 55.1905C43.1988 55.1905 43.7717 55.3064 44.2609 55.5381C44.7565 55.7634 45.1749 56.0949 45.5161 56.5327C45.8637 56.9639 46.1373 57.4853 46.3368 58.0969C46.5364 58.7084 46.6748 59.4004 46.752 60.1728V61.0611C46.6812 61.8271 46.5428 62.5159 46.3368 63.1274C46.1373 63.7389 45.8637 64.2604 45.5161 64.6916C45.1749 65.1229 44.7565 65.4544 44.2609 65.6862C43.7652 65.9115 43.1859 66.0241 42.5229 66.0241C41.9114 66.0241 41.3513 65.8921 40.8428 65.6282C40.3407 65.3643 39.9062 64.9942 39.5393 64.5178C39.1788 64.0415 38.8988 63.4815 38.6993 62.8378C38.5062 62.1876 38.4096 61.4828 38.4096 60.7232ZM40.2055 60.5204V60.7232C40.2055 61.2446 40.257 61.7338 40.36 62.1908C40.4695 62.6479 40.6368 63.0502 40.8621 63.3978C41.0874 63.7454 41.3739 64.019 41.7215 64.2185C42.0691 64.4116 42.4843 64.5082 42.967 64.5082C43.5592 64.5082 44.0452 64.3827 44.425 64.1316C44.8113 63.8806 45.1202 63.5491 45.352 63.1371C45.5837 62.7251 45.7639 62.2777 45.8927 61.795V59.468C45.8154 59.1139 45.7028 58.7728 45.5547 58.4445C45.4131 58.1097 45.2264 57.8136 44.9947 57.5562C44.7694 57.2922 44.4894 57.083 44.1547 56.9285C43.8264 56.7741 43.4369 56.6968 42.9863 56.6968C42.4971 56.6968 42.0755 56.7998 41.7215 57.0058C41.3739 57.2053 41.0874 57.4821 40.8621 57.8362C40.6368 58.1838 40.4695 58.5893 40.36 59.0528C40.257 59.5098 40.2055 59.999 40.2055 60.5204ZM51.5609 55.3836V65.831H49.765V55.3836H51.5609ZM49.6298 52.6125C49.6298 52.3228 49.7167 52.0782 49.8905 51.8787C50.0707 51.6791 50.3346 51.5793 50.6822 51.5793C51.0234 51.5793 51.2841 51.6791 51.4643 51.8787C51.651 52.0782 51.7444 52.3228 51.7444 52.6125C51.7444 52.8893 51.651 53.1275 51.4643 53.327C51.2841 53.5201 51.0234 53.6167 50.6822 53.6167C50.3346 53.6167 50.0707 53.5201 49.8905 53.327C49.7167 53.1275 49.6298 52.8893 49.6298 52.6125ZM58.3685 66.0241C57.6411 66.0241 56.9813 65.9018 56.3891 65.6572C55.8033 65.4061 55.298 65.0553 54.8731 64.6047C54.4547 64.1541 54.1329 63.6199 53.9076 63.0019C53.6823 62.3839 53.5696 61.7081 53.5696 60.9742V60.5687C53.5696 59.719 53.6952 58.9627 53.9462 58.2996C54.1973 57.6302 54.5384 57.0637 54.9697 56.6002C55.401 56.1368 55.8902 55.786 56.4374 55.5478C56.9845 55.3096 57.551 55.1905 58.1367 55.1905C58.8834 55.1905 59.5271 55.3193 60.0679 55.5768C60.615 55.8342 61.0624 56.1947 61.41 56.6582C61.7576 57.1152 62.0151 57.6559 62.1824 58.2803C62.3498 58.8983 62.4335 59.5742 62.4335 60.308V61.1094H54.6318V59.6514H60.6472V59.5162C60.6214 59.0528 60.5249 58.6022 60.3575 58.1645C60.1966 57.7267 59.9391 57.3663 59.5851 57.083C59.231 56.7998 58.7483 56.6582 58.1367 56.6582C57.7312 56.6582 57.3579 56.7451 57.0167 56.9189C56.6755 57.0862 56.3826 57.3373 56.138 57.672C55.8934 58.0067 55.7035 58.4155 55.5683 58.8983C55.4332 59.3811 55.3656 59.9379 55.3656 60.5687V60.9742C55.3656 61.4699 55.4332 61.9366 55.5683 62.3743C55.71 62.8056 55.9127 63.1854 56.1767 63.5137C56.447 63.8419 56.7721 64.0994 57.1519 64.2861C57.5381 64.4728 57.9758 64.5661 58.465 64.5661C59.0959 64.5661 59.6301 64.4374 60.0679 64.1799C60.5056 63.9224 60.8886 63.578 61.2169 63.1467L62.2983 64.0061C62.073 64.3473 61.7865 64.6723 61.4389 64.9813C61.0913 65.2903 60.6633 65.5413 60.1548 65.7344C59.6527 65.9275 59.0572 66.0241 58.3685 66.0241ZM78.086 57.8169V59.3328H70.4774V57.8169H78.086ZM70.767 51.7725V65.831H68.9035V51.7725H70.767ZM79.7081 51.7725V65.831H77.8542V51.7725H79.7081ZM88.5144 64.0447V58.6665C88.5144 58.2546 88.4307 57.8973 88.2633 57.5948C88.1024 57.2858 87.8578 57.0476 87.5295 56.8803C87.2012 56.7129 86.7957 56.6292 86.3129 56.6292C85.8623 56.6292 85.4664 56.7065 85.1253 56.861C84.7905 57.0154 84.5266 57.2182 84.3335 57.4693C84.1468 57.7203 84.0535 57.9907 84.0535 58.2803H82.2672C82.2672 57.907 82.3638 57.5368 82.5569 57.1699C82.75 56.803 83.0268 56.4715 83.3873 56.1754C83.7542 55.8729 84.1919 55.6347 84.7004 55.4609C85.2154 55.2807 85.7883 55.1905 86.4191 55.1905C87.1787 55.1905 87.8481 55.3193 88.4275 55.5768C89.0133 55.8342 89.4703 56.2237 89.7986 56.7451C90.1333 57.26 90.3007 57.907 90.3007 58.6859V63.5523C90.3007 63.8999 90.3296 64.27 90.3876 64.6627C90.4519 65.0553 90.5453 65.3933 90.6676 65.6765V65.831H88.804C88.7139 65.625 88.6431 65.3514 88.5916 65.0103C88.5401 64.6627 88.5144 64.3408 88.5144 64.0447ZM88.8234 59.4969L88.8427 60.7522H87.0371C86.5285 60.7522 86.0747 60.794 85.6756 60.8777C85.2765 60.9549 84.9418 61.074 84.6715 61.2349C84.4011 61.3959 84.1951 61.5986 84.0535 61.8432C83.9119 62.0814 83.8411 62.3614 83.8411 62.6833C83.8411 63.0116 83.9151 63.3109 84.0632 63.5812C84.2112 63.8516 84.4333 64.0672 84.7294 64.2282C85.0319 64.3827 85.4021 64.4599 85.8398 64.4599C86.3869 64.4599 86.8697 64.344 87.2881 64.1123C87.7065 63.8806 88.038 63.5973 88.2826 63.2626C88.5337 62.9279 88.6689 62.6028 88.6882 62.2874L89.451 63.1467C89.4059 63.4171 89.2836 63.7164 89.0841 64.0447C88.8845 64.373 88.6174 64.6884 88.2826 64.991C87.9544 65.2871 87.5617 65.5349 87.1047 65.7344C86.6541 65.9275 86.1455 66.0241 85.5791 66.0241C84.871 66.0241 84.2498 65.8857 83.7156 65.6089C83.1877 65.3321 82.7757 64.962 82.4796 64.4985C82.19 64.0286 82.0451 63.504 82.0451 62.9247C82.0451 62.3646 82.1546 61.8722 82.3734 61.4474C82.5923 61.0161 82.9077 60.6588 83.3197 60.3756C83.7316 60.0859 84.2273 59.8671 84.8066 59.719C85.386 59.571 86.0329 59.4969 86.7474 59.4969H88.8234ZM94.6557 51V65.831H92.8598V51H94.6557ZM100.305 64.2185L103.163 55.3836H104.988L101.232 65.831H100.034L100.305 64.2185ZM97.9197 55.3836L100.865 64.2668L101.067 65.831H99.8701L96.0851 55.3836H97.9197ZM105.683 60.7232V60.5011C105.683 59.748 105.793 59.0496 106.011 58.4058C106.23 57.7557 106.546 57.1925 106.958 56.7161C107.37 56.2333 107.869 55.86 108.454 55.5961C109.04 55.3257 109.697 55.1905 110.424 55.1905C111.158 55.1905 111.818 55.3257 112.403 55.5961C112.996 55.86 113.498 56.2333 113.91 56.7161C114.328 57.1925 114.647 57.7557 114.866 58.4058C115.085 59.0496 115.194 59.748 115.194 60.5011V60.7232C115.194 61.4763 115.085 62.1747 114.866 62.8184C114.647 63.4622 114.328 64.0254 113.91 64.5082C113.498 64.9845 112.999 65.3579 112.413 65.6282C111.834 65.8921 111.177 66.0241 110.443 66.0241C109.71 66.0241 109.05 65.8921 108.464 65.6282C107.878 65.3579 107.376 64.9845 106.958 64.5082C106.546 64.0254 106.23 63.4622 106.011 62.8184C105.793 62.1747 105.683 61.4763 105.683 60.7232ZM107.469 60.5011V60.7232C107.469 61.2446 107.531 61.737 107.653 62.2005C107.775 62.6575 107.959 63.0631 108.203 63.4171C108.454 63.7711 108.767 64.0511 109.14 64.2571C109.513 64.4567 109.948 64.5565 110.443 64.5565C110.933 64.5565 111.361 64.4567 111.728 64.2571C112.101 64.0511 112.41 63.7711 112.655 63.4171C112.899 63.0631 113.083 62.6575 113.205 62.2005C113.334 61.737 113.398 61.2446 113.398 60.7232V60.5011C113.398 59.9861 113.334 59.5001 113.205 59.0431C113.083 58.5796 112.896 58.1709 112.645 57.8169C112.4 57.4564 112.091 57.1731 111.718 56.9672C111.351 56.7612 110.92 56.6582 110.424 56.6582C109.935 56.6582 109.504 56.7612 109.13 56.9672C108.763 57.1731 108.454 57.4564 108.203 57.8169C107.959 58.1709 107.775 58.5796 107.653 59.0431C107.531 59.5001 107.469 59.9861 107.469 60.5011ZM118.825 57.0251V65.831H117.039V55.3836H118.777L118.825 57.0251ZM122.088 55.3257L122.079 56.9865C121.931 56.9543 121.789 56.935 121.654 56.9285C121.525 56.9157 121.377 56.9092 121.21 56.9092C120.798 56.9092 120.434 56.9736 120.119 57.1023C119.803 57.2311 119.536 57.4113 119.317 57.6431C119.098 57.8748 118.925 58.1516 118.796 58.4734C118.674 58.7888 118.593 59.1365 118.554 59.5162L118.052 59.8059C118.052 59.1751 118.114 58.5829 118.236 58.0293C118.365 57.4757 118.561 56.9865 118.825 56.5616C119.089 56.1303 119.423 55.7956 119.829 55.5574C120.241 55.3128 120.73 55.1905 121.297 55.1905C121.425 55.1905 121.573 55.2066 121.741 55.2388C121.908 55.2646 122.024 55.2935 122.088 55.3257ZM129.427 63.0598C129.427 62.8024 129.369 62.5642 129.253 62.3453C129.144 62.12 128.915 61.9173 128.568 61.737C128.227 61.5503 127.712 61.3894 127.023 61.2542C126.443 61.1319 125.919 60.9871 125.449 60.8197C124.985 60.6524 124.59 60.4496 124.261 60.2114C123.939 59.9733 123.692 59.6933 123.518 59.3714C123.344 59.0496 123.257 58.673 123.257 58.2417C123.257 57.8297 123.347 57.4403 123.527 57.0734C123.714 56.7065 123.975 56.3814 124.31 56.0982C124.651 55.8149 125.06 55.5928 125.536 55.4319C126.012 55.271 126.543 55.1905 127.129 55.1905C127.966 55.1905 128.68 55.3386 129.273 55.6347C129.865 55.9308 130.319 56.3267 130.634 56.8223C130.949 57.3115 131.107 57.8555 131.107 58.4541H129.321C129.321 58.1645 129.234 57.8844 129.06 57.6141C128.893 57.3373 128.645 57.1088 128.317 56.9285C127.995 56.7483 127.599 56.6582 127.129 56.6582C126.633 56.6582 126.231 56.7354 125.922 56.8899C125.62 57.038 125.397 57.2279 125.256 57.4596C125.121 57.6913 125.053 57.9359 125.053 58.1934C125.053 58.3865 125.085 58.5603 125.15 58.7148C125.22 58.8629 125.343 59.0013 125.517 59.13C125.69 59.2523 125.935 59.3682 126.25 59.4776C126.566 59.587 126.968 59.6965 127.457 59.8059C128.313 59.999 129.018 60.2308 129.572 60.5011C130.125 60.7715 130.537 61.103 130.808 61.4956C131.078 61.8883 131.213 62.3646 131.213 62.9247C131.213 63.3817 131.117 63.8001 130.924 64.1799C130.737 64.5597 130.463 64.888 130.103 65.1648C129.749 65.4351 129.324 65.6475 128.828 65.802C128.339 65.9501 127.789 66.0241 127.177 66.0241C126.257 66.0241 125.478 65.86 124.841 65.5317C124.203 65.2034 123.721 64.7785 123.392 64.2571C123.064 63.7357 122.9 63.1854 122.9 62.606H124.696C124.722 63.0952 124.863 63.4847 125.121 63.7744C125.378 64.0576 125.694 64.2604 126.067 64.3827C126.44 64.4985 126.81 64.5565 127.177 64.5565C127.667 64.5565 128.075 64.4921 128.404 64.3633C128.738 64.2346 128.993 64.0576 129.166 63.8323C129.34 63.607 129.427 63.3495 129.427 63.0598ZM132.691 60.7232V60.5011C132.691 59.748 132.8 59.0496 133.019 58.4058C133.238 57.7557 133.554 57.1925 133.966 56.7161C134.378 56.2333 134.876 55.86 135.462 55.5961C136.048 55.3257 136.705 55.1905 137.432 55.1905C138.166 55.1905 138.826 55.3257 139.411 55.5961C140.004 55.86 140.506 56.2333 140.918 56.7161C141.336 57.1925 141.655 57.7557 141.873 58.4058C142.092 59.0496 142.202 59.748 142.202 60.5011V60.7232C142.202 61.4763 142.092 62.1747 141.873 62.8184C141.655 63.4622 141.336 64.0254 140.918 64.5082C140.506 64.9845 140.007 65.3579 139.421 65.6282C138.842 65.8921 138.185 66.0241 137.451 66.0241C136.717 66.0241 136.058 65.8921 135.472 65.6282C134.886 65.3579 134.384 64.9845 133.966 64.5082C133.554 64.0254 133.238 63.4622 133.019 62.8184C132.8 62.1747 132.691 61.4763 132.691 60.7232ZM134.477 60.5011V60.7232C134.477 61.2446 134.538 61.737 134.661 62.2005C134.783 62.6575 134.967 63.0631 135.211 63.4171C135.462 63.7711 135.774 64.0511 136.148 64.2571C136.521 64.4567 136.956 64.5565 137.451 64.5565C137.94 64.5565 138.369 64.4567 138.735 64.2571C139.109 64.0511 139.418 63.7711 139.662 63.4171C139.907 63.0631 140.09 62.6575 140.213 62.2005C140.341 61.737 140.406 61.2446 140.406 60.7232V60.5011C140.406 59.9861 140.341 59.5001 140.213 59.0431C140.09 58.5796 139.904 58.1709 139.653 57.8169C139.408 57.4564 139.099 57.1731 138.726 56.9672C138.359 56.7612 137.928 56.6582 137.432 56.6582C136.943 56.6582 136.511 56.7612 136.138 56.9672C135.771 57.1731 135.462 57.4564 135.211 57.8169C134.967 58.1709 134.783 58.5796 134.661 59.0431C134.538 59.5001 134.477 59.9861 134.477 60.5011ZM145.833 57.6141V65.831H144.046V55.3836H145.736L145.833 57.6141ZM145.408 60.2114L144.664 60.1825C144.671 59.468 144.777 58.8082 144.983 58.2031C145.189 57.5916 145.479 57.0605 145.852 56.6099C146.225 56.1593 146.669 55.8117 147.184 55.5671C147.706 55.3161 148.282 55.1905 148.913 55.1905C149.428 55.1905 149.891 55.2613 150.303 55.403C150.715 55.5381 151.066 55.757 151.356 56.0595C151.652 56.3621 151.877 56.7547 152.032 57.2375C152.186 57.7139 152.263 58.2964 152.263 58.9852V65.831H150.467V58.9659C150.467 58.4187 150.387 57.981 150.226 57.6527C150.065 57.318 149.83 57.0766 149.521 56.9285C149.212 56.7741 148.832 56.6968 148.382 56.6968C147.938 56.6968 147.532 56.7901 147.165 56.9768C146.805 57.1635 146.492 57.421 146.229 57.7493C145.971 58.0776 145.768 58.4541 145.62 58.879C145.479 59.2974 145.408 59.7415 145.408 60.2114Z" fill="black"/>
<path opacity="0.6" d="M6.98554 87.4422H8.22146C8.15709 88.0344 7.98758 88.5644 7.71293 89.0321C7.43828 89.4999 7.04991 89.8711 6.54782 90.1458C6.04573 90.4161 5.41919 90.5513 4.6682 90.5513C4.1189 90.5513 3.61896 90.4483 3.16836 90.2423C2.72206 90.0363 2.33798 89.7445 2.01613 89.3669C1.69428 88.9849 1.44538 88.5279 1.26943 87.9958C1.09778 87.4594 1.01195 86.8629 1.01195 86.2063V85.2729C1.01195 84.6163 1.09778 84.022 1.26943 83.4898C1.44538 82.9534 1.69642 82.4942 2.02257 82.1123C2.353 81.7304 2.74996 81.4364 3.21342 81.2304C3.67689 81.0244 4.19829 80.9214 4.77763 80.9214C5.48571 80.9214 6.08435 81.0545 6.57357 81.3205C7.06279 81.5866 7.44257 81.9557 7.71293 82.4277C7.98758 82.8955 8.15709 83.4383 8.22146 84.0563H6.98554C6.92546 83.6186 6.81389 83.2431 6.65081 82.9298C6.48774 82.6122 6.25601 82.3676 5.95561 82.196C5.65522 82.0243 5.26255 81.9385 4.77763 81.9385C4.36137 81.9385 3.99445 82.0179 3.67689 82.1767C3.36362 82.3355 3.0997 82.5608 2.88513 82.8526C2.67486 83.1444 2.51608 83.4941 2.40879 83.9018C2.30151 84.3095 2.24786 84.7622 2.24786 85.26V86.2063C2.24786 86.6654 2.29507 87.0967 2.38948 87.5001C2.48818 87.9035 2.63623 88.2575 2.83364 88.5622C3.03104 88.8669 3.28209 89.1072 3.58677 89.2832C3.89146 89.4548 4.25194 89.5407 4.6682 89.5407C5.19604 89.5407 5.61659 89.457 5.92986 89.2896C6.24313 89.1223 6.47916 88.8819 6.63794 88.5687C6.80101 88.2554 6.91688 87.8799 6.98554 87.4422ZM10.6614 80.5352V90.4225H9.4705V80.5352H10.6614ZM10.3781 86.6762L9.88247 86.6569C9.88677 86.1805 9.95757 85.7407 10.0949 85.3373C10.2322 84.9296 10.4253 84.5756 10.6742 84.2752C10.9231 83.9748 11.2192 83.743 11.5625 83.58C11.9101 83.4126 12.2942 83.3289 12.7148 83.3289C13.0581 83.3289 13.3671 83.3761 13.6417 83.4705C13.9164 83.5606 14.1502 83.7065 14.3434 83.9082C14.5408 84.1099 14.691 84.3717 14.794 84.6936C14.8969 85.0111 14.9484 85.3995 14.9484 85.8587V90.4225H13.7511V85.8458C13.7511 85.481 13.6975 85.1892 13.5902 84.9704C13.4829 84.7472 13.3263 84.5863 13.1203 84.4876C12.9143 84.3846 12.6611 84.3331 12.3607 84.3331C12.0646 84.3331 11.7943 84.3953 11.5497 84.5198C11.3094 84.6442 11.1012 84.8159 10.9253 85.0347C10.7536 85.2536 10.6184 85.5046 10.5197 85.7879C10.4253 86.0668 10.3781 86.3629 10.3781 86.6762ZM17.7617 83.4576V90.4225H16.5644V83.4576H17.7617ZM16.4743 81.6102C16.4743 81.4171 16.5322 81.254 16.6481 81.121C16.7682 80.988 16.9442 80.9214 17.1759 80.9214C17.4034 80.9214 17.5772 80.988 17.6973 81.121C17.8218 81.254 17.884 81.4171 17.884 81.6102C17.884 81.7947 17.8218 81.9535 17.6973 82.0866C17.5772 82.2153 17.4034 82.2797 17.1759 82.2797C16.9442 82.2797 16.7682 82.2153 16.6481 82.0866C16.5322 81.9535 16.4743 81.7947 16.4743 81.6102ZM22.3001 90.5513C21.8152 90.5513 21.3753 90.4698 20.9805 90.3067C20.59 90.1393 20.2531 89.9054 19.9699 89.605C19.6909 89.3046 19.4764 88.9485 19.3262 88.5365C19.176 88.1245 19.1009 87.6739 19.1009 87.1847V86.9143C19.1009 86.3479 19.1845 85.8437 19.3519 85.4016C19.5193 84.9553 19.7467 84.5777 20.0342 84.2687C20.3218 83.9597 20.6479 83.7259 21.0127 83.5671C21.3774 83.4083 21.7551 83.3289 22.1456 83.3289C22.6434 83.3289 23.0725 83.4147 23.433 83.5864C23.7978 83.758 24.096 83.9984 24.3278 84.3073C24.5595 84.612 24.7311 84.9725 24.8427 85.3888C24.9543 85.8007 25.0101 86.2513 25.0101 86.7405V87.2748H19.8089V86.3028H23.8192V86.2127C23.8021 85.9037 23.7377 85.6033 23.6261 85.3115C23.5188 85.0197 23.3472 84.7794 23.1111 84.5906C22.8751 84.4017 22.5533 84.3073 22.1456 84.3073C21.8752 84.3073 21.6263 84.3653 21.3989 84.4811C21.1714 84.5927 20.9762 84.7601 20.8131 84.9832C20.65 85.2064 20.5234 85.4789 20.4333 85.8007C20.3432 86.1226 20.2982 86.4938 20.2982 86.9143V87.1847C20.2982 87.5151 20.3432 87.8263 20.4333 88.1181C20.5277 88.4056 20.6629 88.6588 20.8389 88.8777C21.0191 89.0965 21.2358 89.2682 21.489 89.3926C21.7465 89.5171 22.0383 89.5793 22.3644 89.5793C22.785 89.5793 23.1412 89.4935 23.433 89.3218C23.7248 89.1502 23.9802 88.9206 24.199 88.633L24.92 89.2059C24.7698 89.4334 24.5788 89.6501 24.3471 89.8561C24.1153 90.0621 23.83 90.2294 23.4909 90.3582C23.1562 90.4869 22.7593 90.5513 22.3001 90.5513ZM27.9135 90.4225H26.7226V82.7238C26.7226 82.2217 26.8127 81.799 26.993 81.4557C27.1775 81.1081 27.4414 80.8463 27.7847 80.6704C28.128 80.4902 28.5357 80.4 29.0078 80.4C29.1451 80.4 29.2824 80.4086 29.4197 80.4258C29.5613 80.443 29.6987 80.4687 29.8317 80.503L29.7673 81.475C29.6772 81.4536 29.5742 81.4386 29.4583 81.43C29.3468 81.4214 29.2352 81.4171 29.1236 81.4171C28.8704 81.4171 28.6516 81.4686 28.467 81.5716C28.2868 81.6703 28.1495 81.8162 28.0551 82.0093C27.9607 82.2024 27.9135 82.4406 27.9135 82.7238V90.4225ZM29.394 83.4576V84.3717H25.6219V83.4576H29.394ZM37.0997 86.747H34.5956V85.7364H37.0997C37.5846 85.7364 37.9772 85.6591 38.2776 85.5046C38.578 85.3501 38.7969 85.1356 38.9342 84.8609C39.0758 84.5863 39.1466 84.273 39.1466 83.9211C39.1466 83.5993 39.0758 83.2967 38.9342 83.0135C38.7969 82.7303 38.578 82.5028 38.2776 82.3312C37.9772 82.1552 37.5846 82.0672 37.0997 82.0672H34.8853V90.4225H33.643V81.0502H37.0997C37.8077 81.0502 38.4064 81.1725 38.8956 81.4171C39.3848 81.6617 39.756 82.0007 40.0092 82.4342C40.2624 82.8633 40.389 83.3547 40.389 83.9082C40.389 84.509 40.2624 85.0219 40.0092 85.4467C39.756 85.8715 39.3848 86.1955 38.8956 86.4187C38.4064 86.6376 37.8077 86.747 37.0997 86.747ZM42.7066 84.5519V90.4225H41.5157V83.4576H42.6744L42.7066 84.5519ZM44.8823 83.419L44.8759 84.5262C44.7772 84.5047 44.6828 84.4919 44.5926 84.4876C44.5068 84.479 44.4081 84.4747 44.2965 84.4747C44.0219 84.4747 43.7794 84.5176 43.5692 84.6034C43.3589 84.6893 43.1808 84.8094 43.0349 84.9639C42.889 85.1184 42.7731 85.3029 42.6873 85.5175C42.6057 85.7278 42.5521 85.9595 42.5264 86.2127L42.1916 86.4058C42.1916 85.9853 42.2324 85.5905 42.3139 85.2214C42.3998 84.8523 42.5306 84.5262 42.7066 84.243C42.8825 83.9554 43.1057 83.7323 43.376 83.5735C43.6507 83.4104 43.9768 83.3289 44.3545 83.3289C44.4403 83.3289 44.539 83.3396 44.6506 83.3611C44.7622 83.3783 44.8394 83.3976 44.8823 83.419ZM45.2752 87.0173V86.8693C45.2752 86.3672 45.3482 85.9016 45.4941 85.4724C45.64 85.039 45.8503 84.6635 46.1249 84.346C46.3996 84.0241 46.7322 83.7752 47.1227 83.5993C47.5132 83.419 47.9509 83.3289 48.4358 83.3289C48.925 83.3289 49.3649 83.419 49.7554 83.5993C50.1502 83.7752 50.485 84.0241 50.7596 84.346C51.0385 84.6635 51.251 85.039 51.3969 85.4724C51.5428 85.9016 51.6157 86.3672 51.6157 86.8693V87.0173C51.6157 87.5194 51.5428 87.985 51.3969 88.4142C51.251 88.8433 51.0385 89.2188 50.7596 89.5407C50.485 89.8582 50.1524 90.1071 49.7619 90.2874C49.3756 90.4633 48.9379 90.5513 48.4487 90.5513C47.9595 90.5513 47.5196 90.4633 47.1291 90.2874C46.7386 90.1071 46.4039 89.8582 46.1249 89.5407C45.8503 89.2188 45.64 88.8433 45.4941 88.4142C45.3482 87.985 45.2752 87.5194 45.2752 87.0173ZM46.4661 86.8693V87.0173C46.4661 87.3649 46.5069 87.6932 46.5884 88.0022C46.6699 88.3069 46.7922 88.5773 46.9553 88.8133C47.1227 89.0493 47.3308 89.236 47.5797 89.3733C47.8286 89.5063 48.1183 89.5729 48.4487 89.5729C48.7748 89.5729 49.0602 89.5063 49.3048 89.3733C49.5537 89.236 49.7597 89.0493 49.9228 88.8133C50.0859 88.5773 50.2082 88.3069 50.2897 88.0022C50.3755 87.6932 50.4184 87.3649 50.4184 87.0173V86.8693C50.4184 86.526 50.3755 86.202 50.2897 85.8973C50.2082 85.5883 50.0837 85.3158 49.9164 85.0798C49.7533 84.8395 49.5473 84.6506 49.2984 84.5133C49.0538 84.376 48.7663 84.3073 48.4358 84.3073C48.1097 84.3073 47.8222 84.376 47.5733 84.5133C47.3287 84.6506 47.1227 84.8395 46.9553 85.0798C46.7922 85.3158 46.6699 85.5883 46.5884 85.8973C46.5069 86.202 46.4661 86.526 46.4661 86.8693ZM57.2355 89.0708V80.5352H58.4328V90.4225H57.3385L57.2355 89.0708ZM52.5494 87.0173V86.8822C52.5494 86.35 52.6137 85.8673 52.7425 85.4338C52.8755 84.9961 53.0622 84.6206 53.3025 84.3073C53.5471 83.9941 53.8368 83.7538 54.1715 83.5864C54.5105 83.4147 54.8882 83.3289 55.3044 83.3289C55.7421 83.3289 56.1241 83.4062 56.4502 83.5606C56.7807 83.7108 57.0596 83.9318 57.287 84.2237C57.5188 84.5112 57.7012 84.8588 57.8342 85.2665C57.9672 85.6741 58.0595 86.1355 58.111 86.6504V87.2426C58.0638 87.7533 57.9715 88.2125 57.8342 88.6202C57.7012 89.0279 57.5188 89.3755 57.287 89.663C57.0596 89.9505 56.7807 90.1715 56.4502 90.326C56.1198 90.4762 55.7336 90.5513 55.2916 90.5513C54.8839 90.5513 54.5105 90.4633 54.1715 90.2874C53.8368 90.1114 53.5471 89.8647 53.3025 89.5471C53.0622 89.2295 52.8755 88.8562 52.7425 88.4271C52.6137 87.9936 52.5494 87.5237 52.5494 87.0173ZM53.7467 86.8822V87.0173C53.7467 87.3649 53.781 87.6911 53.8497 87.9958C53.9226 88.3005 54.0342 88.5687 54.1844 88.8004C54.3346 89.0321 54.5255 89.2145 54.7573 89.3476C54.989 89.4763 55.2658 89.5407 55.5877 89.5407C55.9825 89.5407 56.3065 89.457 56.5597 89.2896C56.8171 89.1223 57.0231 88.9013 57.1776 88.6266C57.3321 88.352 57.4523 88.0537 57.5381 87.7319V86.1805C57.4866 85.9445 57.4115 85.7171 57.3128 85.4982C57.2184 85.275 57.0939 85.0776 56.9394 84.906C56.7892 84.73 56.6026 84.5906 56.3794 84.4876C56.1606 84.3846 55.9009 84.3331 55.6005 84.3331C55.2744 84.3331 54.9933 84.4017 54.7573 84.5391C54.5255 84.6721 54.3346 84.8566 54.1844 85.0927C54.0342 85.3244 53.9226 85.5948 53.8497 85.9037C53.781 86.2084 53.7467 86.5346 53.7467 86.8822ZM64.2844 88.8133V83.4576H65.4817V90.4225H64.3423L64.2844 88.8133ZM64.5097 87.3456L65.0053 87.3328C65.0053 87.7962 64.956 88.2254 64.8573 88.6202C64.7629 89.0107 64.6084 89.3497 64.3938 89.6372C64.1792 89.9247 63.8982 90.15 63.5506 90.3131C63.203 90.4719 62.7803 90.5513 62.2825 90.5513C61.9434 90.5513 61.6323 90.5019 61.3491 90.4032C61.0701 90.3045 60.8298 90.1522 60.6281 89.9462C60.4264 89.7402 60.2698 89.472 60.1582 89.1416C60.0509 88.8111 59.9973 88.4142 59.9973 87.9507V83.4576H61.1882V87.9636C61.1882 88.2769 61.2225 88.5365 61.2912 88.7425C61.3641 88.9442 61.4607 89.1051 61.5808 89.2253C61.7053 89.3411 61.8426 89.4227 61.9928 89.4699C62.1473 89.5171 62.3061 89.5407 62.4691 89.5407C62.9755 89.5407 63.3768 89.4441 63.6729 89.251C63.969 89.0536 64.1814 88.7897 64.3101 88.4592C64.4432 88.1245 64.5097 87.7533 64.5097 87.3456ZM69.8205 89.5729C70.1037 89.5729 70.3655 89.5149 70.6058 89.3991C70.8462 89.2832 71.0436 89.1244 71.198 88.9227C71.3525 88.7167 71.4405 88.4828 71.462 88.2211H72.5949C72.5734 88.633 72.434 89.0171 72.1765 89.3733C71.9233 89.7252 71.5907 90.0106 71.1787 90.2294C70.7668 90.444 70.314 90.5513 69.8205 90.5513C69.297 90.5513 68.8399 90.459 68.4494 90.2745C68.0632 90.09 67.7413 89.8368 67.4839 89.5149C67.2307 89.1931 67.0397 88.824 66.911 88.4077C66.7865 87.9872 66.7243 87.543 66.7243 87.0753V86.8049C66.7243 86.3372 66.7865 85.8951 66.911 85.4789C67.0397 85.0583 67.2307 84.6871 67.4839 84.3653C67.7413 84.0434 68.0632 83.7902 68.4494 83.6057C68.8399 83.4212 69.297 83.3289 69.8205 83.3289C70.3655 83.3289 70.8419 83.4405 71.2495 83.6636C71.6572 83.8825 71.9769 84.1829 72.2087 84.5648C72.4447 84.9425 72.5734 85.3716 72.5949 85.8522H71.462C71.4405 85.5647 71.359 85.3051 71.2174 85.0733C71.08 84.8416 70.8912 84.6571 70.6509 84.5198C70.4149 84.3781 70.1381 84.3073 69.8205 84.3073C69.4557 84.3073 69.1489 84.3803 68.9 84.5262C68.6554 84.6678 68.4601 84.8609 68.3142 85.1055C68.1726 85.3459 68.0696 85.6141 68.0053 85.9102C67.9452 86.202 67.9151 86.5002 67.9151 86.8049V87.0753C67.9151 87.38 67.9452 87.6804 68.0053 87.9765C68.0653 88.2726 68.1662 88.5408 68.3078 88.7811C68.4537 89.0214 68.649 89.2145 68.8936 89.3604C69.1425 89.502 69.4515 89.5729 69.8205 89.5729ZM76.5861 83.4576V84.3717H72.8204V83.4576H76.5861ZM74.095 81.7647H75.2858V88.6974C75.2858 88.9334 75.3223 89.1115 75.3953 89.2317C75.4682 89.3518 75.5626 89.4312 75.6785 89.4699C75.7944 89.5085 75.9188 89.5278 76.0518 89.5278C76.1506 89.5278 76.2535 89.5192 76.3608 89.502C76.4724 89.4806 76.5561 89.4634 76.6119 89.4506L76.6183 90.4225C76.5239 90.4526 76.3995 90.4805 76.245 90.5062C76.0948 90.5363 75.9124 90.5513 75.6978 90.5513C75.406 90.5513 75.1378 90.4934 74.8932 90.3775C74.6486 90.2616 74.4533 90.0685 74.3074 89.7982C74.1658 89.5235 74.095 89.1544 74.095 88.691V81.7647ZM79.0132 83.4576V90.4225H77.8159V83.4576H79.0132ZM77.7257 81.6102C77.7257 81.4171 77.7837 81.254 77.8995 81.121C78.0197 80.988 78.1956 80.9214 78.4274 80.9214C78.6548 80.9214 78.8286 80.988 78.9488 81.121C79.0732 81.254 79.1355 81.4171 79.1355 81.6102C79.1355 81.7947 79.0732 81.9535 78.9488 82.0866C78.8286 82.2153 78.6548 82.2797 78.4274 82.2797C78.1956 82.2797 78.0197 82.2153 77.8995 82.0866C77.7837 81.9535 77.7257 81.7947 77.7257 81.6102ZM82.7791 89.3476L84.6845 83.4576H85.9011L83.397 90.4225H82.5989L82.7791 89.3476ZM81.1891 83.4576L83.1524 89.3797L83.2876 90.4225H82.4894L79.9661 83.4576H81.1891ZM88.077 83.4576V90.4225H86.8798V83.4576H88.077ZM86.7896 81.6102C86.7896 81.4171 86.8476 81.254 86.9634 81.121C87.0836 80.988 87.2595 80.9214 87.4913 80.9214C87.7187 80.9214 87.8925 80.988 88.0127 81.121C88.1371 81.254 88.1994 81.4171 88.1994 81.6102C88.1994 81.7947 88.1371 81.9535 88.0127 82.0866C87.8925 82.2153 87.7187 82.2797 87.4913 82.2797C87.2595 82.2797 87.0836 82.2153 86.9634 82.0866C86.8476 81.9535 86.7896 81.7947 86.7896 81.6102ZM92.6412 83.4576V84.3717H88.8755V83.4576H92.6412ZM90.15 81.7647H91.3409V88.6974C91.3409 88.9334 91.3774 89.1115 91.4503 89.2317C91.5233 89.3518 91.6177 89.4312 91.7336 89.4699C91.8494 89.5085 91.9739 89.5278 92.1069 89.5278C92.2056 89.5278 92.3086 89.5192 92.4159 89.502C92.5275 89.4806 92.6111 89.4634 92.6669 89.4506L92.6734 90.4225C92.579 90.4526 92.4545 90.4805 92.3 90.5062C92.1498 90.5363 91.9674 90.5513 91.7529 90.5513C91.4611 90.5513 91.1928 90.4934 90.9482 90.3775C90.7036 90.2616 90.5084 90.0685 90.3625 89.7982C90.2208 89.5235 90.15 89.1544 90.15 88.691V81.7647ZM95.7312 89.7016L97.6688 83.4576H98.9433L96.1496 91.4975C96.0853 91.6692 95.9994 91.8537 95.8922 92.0511C95.7892 92.2528 95.6561 92.4438 95.4931 92.624C95.33 92.8043 95.1326 92.9502 94.9008 93.0617C94.6734 93.1776 94.4009 93.2355 94.0833 93.2355C93.9889 93.2355 93.8688 93.2227 93.7229 93.1969C93.577 93.1712 93.474 93.1497 93.4139 93.1325L93.4075 92.167C93.4418 92.1713 93.4954 92.1756 93.5684 92.1799C93.6456 92.1884 93.6993 92.1927 93.7293 92.1927C93.9997 92.1927 94.2292 92.1563 94.4181 92.0833C94.6069 92.0146 94.7657 91.8966 94.8944 91.7293C95.0274 91.5662 95.1412 91.3409 95.2356 91.0534L95.7312 89.7016ZM94.3086 83.4576L96.1175 88.8648L96.4264 90.12L95.5703 90.5577L93.0084 83.4576H94.3086ZM108.896 89.4119V90.4225H103.933V89.4119H108.896ZM104.184 81.0502V90.4225H102.941V81.0502H104.184ZM108.239 85.0798V86.0904H103.933V85.0798H108.239ZM108.831 81.0502V82.0672H103.933V81.0502H108.831ZM111.181 84.9446V90.4225H109.99V83.4576H111.117L111.181 84.9446ZM110.898 86.6762L110.402 86.6569C110.406 86.1805 110.477 85.7407 110.614 85.3373C110.752 84.9296 110.945 84.5756 111.194 84.2752C111.443 83.9748 111.739 83.743 112.082 83.58C112.43 83.4126 112.814 83.3289 113.234 83.3289C113.578 83.3289 113.887 83.3761 114.161 83.4705C114.436 83.5606 114.67 83.7065 114.863 83.9082C115.06 84.1099 115.211 84.3717 115.314 84.6936C115.417 85.0111 115.468 85.3995 115.468 85.8587V90.4225H114.271V85.8458C114.271 85.481 114.217 85.1892 114.11 84.9704C114.003 84.7472 113.846 84.5863 113.64 84.4876C113.434 84.3846 113.181 84.3331 112.88 84.3331C112.584 84.3331 112.314 84.3953 112.069 84.5198C111.829 84.6442 111.621 84.8159 111.445 85.0347C111.273 85.2536 111.138 85.5046 111.039 85.7879C110.945 86.0668 110.898 86.3629 110.898 86.6762ZM119.929 83.4576V84.3717H116.163V83.4576H119.929ZM117.438 81.7647H118.629V88.6974C118.629 88.9334 118.665 89.1115 118.738 89.2317C118.811 89.3518 118.906 89.4312 119.022 89.4699C119.137 89.5085 119.262 89.5278 119.395 89.5278C119.494 89.5278 119.597 89.5192 119.704 89.502C119.815 89.4806 119.899 89.4634 119.955 89.4506L119.961 90.4225C119.867 90.4526 119.742 90.4805 119.588 90.5062C119.438 90.5363 119.255 90.5513 119.041 90.5513C118.749 90.5513 118.481 90.4934 118.236 90.3775C117.992 90.2616 117.796 90.0685 117.65 89.7982C117.509 89.5235 117.438 89.1544 117.438 88.691V81.7647ZM122.253 80.5352V90.4225H121.062V80.5352H122.253ZM121.97 86.6762L121.474 86.6569C121.479 86.1805 121.549 85.7407 121.687 85.3373C121.824 84.9296 122.017 84.5756 122.266 84.2752C122.515 83.9748 122.811 83.743 123.154 83.58C123.502 83.4126 123.886 83.3289 124.307 83.3289C124.65 83.3289 124.959 83.3761 125.234 83.4705C125.508 83.5606 125.742 83.7065 125.935 83.9082C126.133 84.1099 126.283 84.3717 126.386 84.6936C126.489 85.0111 126.54 85.3995 126.54 85.8587V90.4225H125.343V85.8458C125.343 85.481 125.289 85.1892 125.182 84.9704C125.075 84.7472 124.918 84.5863 124.712 84.4876C124.506 84.3846 124.253 84.3331 123.953 84.3331C123.656 84.3331 123.386 84.3953 123.142 84.5198C122.901 84.6442 122.693 84.8159 122.517 85.0347C122.345 85.2536 122.21 85.5046 122.112 85.7879C122.017 86.0668 121.97 86.3629 121.97 86.6762ZM132.321 88.8133V83.4576H133.518V90.4225H132.379L132.321 88.8133ZM132.546 87.3456L133.042 87.3328C133.042 87.7962 132.993 88.2254 132.894 88.6202C132.8 89.0107 132.645 89.3497 132.43 89.6372C132.216 89.9247 131.935 90.15 131.587 90.3131C131.24 90.4719 130.817 90.5513 130.319 90.5513C129.98 90.5513 129.669 90.5019 129.386 90.4032C129.107 90.3045 128.866 90.1522 128.665 89.9462C128.463 89.7402 128.306 89.472 128.195 89.1416C128.088 88.8111 128.034 88.4142 128.034 87.9507V83.4576H129.225V87.9636C129.225 88.2769 129.259 88.5365 129.328 88.7425C129.401 88.9442 129.497 89.1051 129.617 89.2253C129.742 89.3411 129.879 89.4227 130.029 89.4699C130.184 89.5171 130.343 89.5407 130.506 89.5407C131.012 89.5407 131.413 89.4441 131.709 89.251C132.006 89.0536 132.218 88.7897 132.347 88.4592C132.48 88.1245 132.546 87.7533 132.546 87.3456ZM139.125 88.5751C139.125 88.4035 139.087 88.2447 139.009 88.0988C138.936 87.9486 138.784 87.8134 138.552 87.6932C138.325 87.5688 137.982 87.4615 137.522 87.3714C137.136 87.2898 136.786 87.1933 136.473 87.0817C136.164 86.9701 135.9 86.835 135.681 86.6762C135.467 86.5174 135.302 86.3307 135.186 86.1162C135.07 85.9016 135.012 85.6505 135.012 85.363C135.012 85.0884 135.072 84.8287 135.192 84.5841C135.317 84.3395 135.49 84.1228 135.714 83.934C135.941 83.7452 136.214 83.5971 136.531 83.4898C136.849 83.3825 137.203 83.3289 137.593 83.3289C138.151 83.3289 138.627 83.4276 139.022 83.625C139.417 83.8224 139.72 84.0863 139.93 84.4168C140.14 84.7429 140.245 85.1055 140.245 85.5046H139.054C139.054 85.3115 138.997 85.1248 138.881 84.9446C138.769 84.7601 138.604 84.6077 138.385 84.4876C138.17 84.3674 137.907 84.3073 137.593 84.3073C137.263 84.3073 136.995 84.3588 136.789 84.4618C136.587 84.5605 136.439 84.6871 136.344 84.8416C136.254 84.9961 136.209 85.1592 136.209 85.3308C136.209 85.4596 136.231 85.5754 136.274 85.6784C136.321 85.7771 136.402 85.8694 136.518 85.9552C136.634 86.0368 136.797 86.114 137.007 86.187C137.218 86.2599 137.486 86.3329 137.812 86.4058C138.383 86.5346 138.853 86.6891 139.222 86.8693C139.591 87.0495 139.866 87.2705 140.046 87.5323C140.226 87.7941 140.316 88.1116 140.316 88.485C140.316 88.7897 140.252 89.0686 140.123 89.3218C139.999 89.575 139.816 89.7939 139.576 89.9784C139.34 90.1586 139.057 90.3002 138.726 90.4032C138.4 90.5019 138.033 90.5513 137.625 90.5513C137.012 90.5513 136.492 90.4419 136.068 90.223C135.643 90.0041 135.321 89.7209 135.102 89.3733C134.883 89.0257 134.774 88.6588 134.774 88.2726H135.971C135.988 88.5987 136.083 88.8583 136.254 89.0515C136.426 89.2403 136.636 89.3755 136.885 89.457C137.134 89.5342 137.381 89.5729 137.625 89.5729C137.952 89.5729 138.224 89.5299 138.443 89.4441C138.666 89.3583 138.836 89.2403 138.951 89.0901C139.067 88.9399 139.125 88.7682 139.125 88.5751ZM142.911 83.4576V90.4225H141.713V83.4576H142.911ZM141.623 81.6102C141.623 81.4171 141.681 81.254 141.797 81.121C141.917 80.988 142.093 80.9214 142.325 80.9214C142.552 80.9214 142.726 80.988 142.846 81.121C142.971 81.254 143.033 81.4171 143.033 81.6102C143.033 81.7947 142.971 81.9535 142.846 82.0866C142.726 82.2153 142.552 82.2797 142.325 82.2797C142.093 82.2797 141.917 82.2153 141.797 82.0866C141.681 81.9535 141.623 81.7947 141.623 81.6102ZM148.665 89.2317V85.6462C148.665 85.3716 148.61 85.1334 148.498 84.9317C148.391 84.7257 148.228 84.567 148.009 84.4554C147.79 84.3438 147.52 84.288 147.198 84.288C146.897 84.288 146.634 84.3395 146.406 84.4425C146.183 84.5455 146.007 84.6807 145.878 84.8481C145.754 85.0154 145.692 85.1957 145.692 85.3888H144.501C144.501 85.1399 144.565 84.8931 144.694 84.6485C144.823 84.4039 145.007 84.1829 145.247 83.9855C145.492 83.7838 145.784 83.625 146.123 83.5091C146.466 83.389 146.848 83.3289 147.269 83.3289C147.775 83.3289 148.221 83.4147 148.608 83.5864C148.998 83.758 149.303 84.0177 149.522 84.3653C149.745 84.7086 149.856 85.1399 149.856 85.6591V88.9034C149.856 89.1351 149.876 89.3819 149.914 89.6437C149.957 89.9054 150.019 90.1307 150.101 90.3196V90.4225H148.859C148.799 90.2852 148.751 90.1028 148.717 89.8754C148.683 89.6437 148.665 89.4291 148.665 89.2317ZM148.871 86.1998L148.884 87.0367H147.681C147.342 87.0367 147.039 87.0645 146.773 87.1203C146.507 87.1718 146.284 87.2512 146.104 87.3585C145.923 87.4658 145.786 87.601 145.692 87.764C145.597 87.9228 145.55 88.1095 145.55 88.3241C145.55 88.5429 145.599 88.7425 145.698 88.9227C145.797 89.1029 145.945 89.2467 146.142 89.354C146.344 89.457 146.591 89.5085 146.882 89.5085C147.247 89.5085 147.569 89.4312 147.848 89.2767C148.127 89.1223 148.348 88.9334 148.511 88.7103C148.678 88.4871 148.768 88.2704 148.781 88.0601L149.29 88.633C149.26 88.8133 149.178 89.0128 149.045 89.2317C148.912 89.4506 148.734 89.6608 148.511 89.8625C148.292 90.0599 148.03 90.2251 147.726 90.3582C147.425 90.4869 147.086 90.5513 146.709 90.5513C146.237 90.5513 145.822 90.459 145.466 90.2745C145.114 90.09 144.84 89.8432 144.642 89.5342C144.449 89.221 144.353 88.8712 144.353 88.485C144.353 88.1116 144.426 87.7834 144.572 87.5001C144.717 87.2126 144.928 86.9744 145.202 86.7856C145.477 86.5925 145.807 86.4466 146.194 86.3479C146.58 86.2492 147.011 86.1998 147.488 86.1998H148.871ZM155.521 88.5751C155.521 88.4035 155.483 88.2447 155.405 88.0988C155.332 87.9486 155.18 87.8134 154.948 87.6932C154.721 87.5688 154.378 87.4615 153.918 87.3714C153.532 87.2898 153.182 87.1933 152.869 87.0817C152.56 86.9701 152.296 86.835 152.077 86.6762C151.863 86.5174 151.698 86.3307 151.582 86.1162C151.466 85.9016 151.408 85.6505 151.408 85.363C151.408 85.0884 151.468 84.8287 151.588 84.5841C151.713 84.3395 151.886 84.1228 152.11 83.934C152.337 83.7452 152.61 83.5971 152.927 83.4898C153.245 83.3825 153.599 83.3289 153.989 83.3289C154.547 83.3289 155.023 83.4276 155.418 83.625C155.813 83.8224 156.116 84.0863 156.326 84.4168C156.536 84.7429 156.641 85.1055 156.641 85.5046H155.45C155.45 85.3115 155.392 85.1248 155.277 84.9446C155.165 84.7601 155 84.6077 154.781 84.4876C154.566 84.3674 154.302 84.3073 153.989 84.3073C153.659 84.3073 153.391 84.3588 153.185 84.4618C152.983 84.5605 152.835 84.6871 152.74 84.8416C152.65 84.9961 152.605 85.1592 152.605 85.3308C152.605 85.4596 152.627 85.5754 152.67 85.6784C152.717 85.7771 152.798 85.8694 152.914 85.9552C153.03 86.0368 153.193 86.114 153.403 86.187C153.614 86.2599 153.882 86.3329 154.208 86.4058C154.779 86.5346 155.249 86.6891 155.618 86.8693C155.987 87.0495 156.261 87.2705 156.442 87.5323C156.622 87.7941 156.712 88.1116 156.712 88.485C156.712 88.7897 156.648 89.0686 156.519 89.3218C156.395 89.575 156.212 89.7939 155.972 89.9784C155.736 90.1586 155.453 90.3002 155.122 90.4032C154.796 90.5019 154.429 90.5513 154.021 90.5513C153.408 90.5513 152.888 90.4419 152.464 90.223C152.039 90.0041 151.717 89.7209 151.498 89.3733C151.279 89.0257 151.17 88.6588 151.17 88.2726H152.367C152.384 88.5987 152.479 88.8583 152.65 89.0515C152.822 89.2403 153.032 89.3755 153.281 89.457C153.53 89.5342 153.777 89.5729 154.021 89.5729C154.348 89.5729 154.62 89.5299 154.839 89.4441C155.062 89.3583 155.232 89.2403 155.347 89.0901C155.463 88.9399 155.521 88.7682 155.521 88.5751ZM160.929 83.4576V84.3717H157.163V83.4576H160.929ZM158.437 81.7647H159.628V88.6974C159.628 88.9334 159.665 89.1115 159.738 89.2317C159.811 89.3518 159.905 89.4312 160.021 89.4699C160.137 89.5085 160.261 89.5278 160.394 89.5278C160.493 89.5278 160.596 89.5192 160.703 89.502C160.815 89.4806 160.899 89.4634 160.954 89.4506L160.961 90.4225C160.866 90.4526 160.742 90.4805 160.587 90.5062C160.437 90.5363 160.255 90.5513 160.04 90.5513C159.748 90.5513 159.48 90.4934 159.236 90.3775C158.991 90.2616 158.796 90.0685 158.65 89.7982C158.508 89.5235 158.437 89.1544 158.437 88.691V81.7647Z" fill="black"/>
</svg>
