<svg width="60" height="60" viewBox="0 0 60 60" fill="none" xmlns="http://www.w3.org/2000/svg">
<path fill-rule="evenodd" clip-rule="evenodd" d="M30.0848 59.4226C46.4667 59.4226 59.7468 46.1425 59.7468 29.7606C59.7468 13.3788 46.4667 0.0986328 30.0848 0.0986328C13.703 0.0986328 0.422852 13.3788 0.422852 29.7606C0.422852 46.1425 13.703 59.4226 30.0848 59.4226ZM28.4338 19.2601C27.296 18.5016 25.8331 18.4309 24.6275 19.0761C23.4219 19.7213 22.6693 20.9777 22.6693 22.3451V37.1761C22.6693 38.5435 23.4219 39.7999 24.6275 40.4451C25.8331 41.0903 27.296 41.0196 28.4338 40.2611L39.557 32.8456C40.5885 32.158 41.2081 31.0003 41.2081 29.7606C41.2081 28.5209 40.5885 27.3632 39.557 26.6756L28.4338 19.2601Z" fill="black"/>
</svg>
