<svg width="1073" height="43" viewBox="0 0 1073 43" fill="none" xmlns="http://www.w3.org/2000/svg">
<path d="M230.468 36.017H224.949V21.2474H221.189V16.4387H224.949V13.017C224.949 8.96224 226.612 6.0542 232.116 6.0542C233.28 6.0542 235.108 6.30609 235.108 6.30609V10.7712H233.188C231.232 10.7712 230.469 11.4099 230.469 13.1756V16.4387H235.035L234.628 21.2474H230.469L230.468 36.017ZM243.132 16.0544C243.052 16.0544 242.969 16.0576 242.887 16.0598C237.77 16.0598 235.428 20.1922 235.428 26.0583C235.428 33.448 238.465 36.4055 242.927 36.4055C245.48 36.4055 247.158 35.2521 248.177 33.0995V36.0191H253.427V16.4408H248.177V19.4516C247.345 17.5145 245.62 16.0774 243.132 16.0544ZM244.467 20.6807C246.617 20.6807 247.907 22.2902 247.907 25.0278L247.912 27.8239C247.912 29.669 246.846 31.8277 244.467 31.8277C240.81 31.8277 240.908 27.5883 240.908 26.1764C240.908 21.4268 242.856 20.6807 244.467 20.6807ZM255.547 26.2309C255.547 23.8518 255.441 16.0672 264.889 16.0672C268.681 16.0672 270.265 17.3617 270.265 17.3617L268.992 21.5996C268.992 21.5996 267.41 20.6647 265.35 20.6647C262.71 20.6647 261.026 22.3073 261.026 25.1974L261.029 27.2698C261.029 30.0468 262.654 31.9006 265.355 31.9006C267.232 31.9006 268.963 30.9569 268.963 30.9569L270.233 35.1063C270.233 35.1063 268.785 36.409 264.915 36.409C255.919 36.409 255.547 29.4247 255.547 26.2309H255.547ZM301.045 16.0598C306.163 16.0598 308.541 20.1922 308.541 26.0583C308.541 33.448 305.504 36.4055 301.042 36.4055C298.489 36.4055 296.602 35.2522 295.583 33.0995V36.0191L290.399 36.0169V6.64949L295.903 6.13423V19.1864C296.697 16.9029 299.307 16.0598 301.045 16.0598H301.045ZM299.502 20.6807C297.353 20.6807 295.903 22.2902 295.903 25.0278L295.897 27.8239C295.894 29.669 296.902 31.8277 299.502 31.8277C303.16 31.8277 303.062 27.5883 303.062 26.1764C303.062 21.4268 301.113 20.6807 299.502 20.6807ZM279.814 16.076C274.009 16.076 270.945 19.4733 270.945 25.5108V26.6325C270.945 34.4686 275.248 36.486 280.379 36.486C285.366 36.486 287.623 34.9887 287.623 34.9887L286.593 31.0012C286.593 31.0012 283.938 32.214 281.039 32.214C278.033 32.214 276.741 31.3917 276.409 28.291H288.063V25.0921C288.063 18.543 284.624 16.0758 279.814 16.0758L279.814 16.076ZM279.954 20.0688C281.963 20.0688 283.265 21.3914 283.194 24.4589H276.419C276.537 21.2304 277.941 20.0689 279.954 20.0689V20.0688ZM319.515 16.0491C313.554 16.0491 310.416 19.6551 310.416 26.1172C310.416 34.9837 315.826 36.4109 319.525 36.4109C324.941 36.4109 328.544 33.2808 328.544 26.1978C328.544 18.8255 324.493 16.0491 319.515 16.0491ZM319.44 20.6968C322.061 20.6968 323.1 22.8026 323.1 25.1996V27.2605C323.1 30.1643 321.647 31.8439 319.43 31.8439C317.357 31.8439 315.901 30.2728 315.901 27.2605V25.1996C315.901 21.987 317.634 20.6968 319.44 20.6968ZM339.508 16.0491C333.547 16.0491 330.409 19.6551 330.409 26.1172C330.409 34.9837 335.819 36.4109 339.518 36.4109C344.934 36.4109 348.538 33.2808 348.538 26.1978C348.538 18.8255 344.486 16.0491 339.508 16.0491ZM339.433 20.6968C342.055 20.6968 343.093 22.8026 343.093 25.1996V27.2605C343.093 30.1643 341.64 31.8439 339.424 31.8439C337.351 31.8439 335.894 30.2728 335.894 27.2605V25.1996C335.894 21.987 337.627 20.6968 339.433 20.6968ZM350.617 36.017V6.64949L356.137 6.13423V25.8182L361.613 16.4387H367.442L361.729 26.1531L367.662 36.017H361.816L356.137 26.4393V36.017H350.617Z" fill="#170F49" fill-opacity="0.6"/>
<path d="M15.3862 0.305176H16.4504C20.1447 0.391388 23.7788 1.98632 26.389 4.80977C25.4252 5.86588 24.4414 6.87887 23.4977 7.93498C22.0321 6.51247 20.2652 5.41326 18.3377 5.02531C15.4866 4.37871 12.4147 4.96065 10.0254 6.70645C7.4153 8.53846 5.64844 11.6421 5.26695 14.9613C4.84532 18.2374 5.70867 21.6859 7.69639 24.2291C9.60379 26.7077 12.5151 28.2596 15.5268 28.3673C18.3377 28.5397 21.2691 27.613 23.317 25.5008C24.9233 24.0136 25.6662 21.7505 25.9071 19.5521C22.5742 19.5521 19.2412 19.5737 15.9083 19.5521V15.1122H29.9428C30.6656 19.8754 29.6215 25.2421 26.2484 28.6475C23.9997 31.0615 20.8876 32.484 17.7153 32.7642C14.6434 33.0875 11.471 32.4624 8.74044 30.8675C5.46773 28.9924 2.8576 25.8241 1.57261 22.0954C0.36793 18.6684 0.347852 14.7889 1.47222 11.3404C2.49619 8.19361 4.46384 5.41326 6.99366 3.47348C9.42309 1.55526 12.3746 0.499154 15.3862 0.305176Z" fill="#170F49" fill-opacity="0.6"/>
<path d="M95.8994 1.42603H100.196V32.2038C98.7706 32.2038 97.3249 32.2254 95.8994 32.1823C95.9195 21.9445 95.8994 11.6853 95.8994 1.42603Z" fill="#170F49" fill-opacity="0.6"/>
<path d="M39.4999 12.0949C42.1502 11.5561 45.0213 12.1595 47.2098 13.8622C49.1976 15.3709 50.5829 17.7417 51.0046 20.3281C51.5467 23.324 50.864 26.6 49.057 28.9708C47.1094 31.6218 43.917 33.0443 40.805 32.8288C37.9539 32.6564 35.1831 31.1261 33.4966 28.626C31.5892 25.8672 31.1274 22.0739 32.1714 18.8409C33.2155 15.3709 36.1669 12.7199 39.4999 12.0949ZM40.1022 16.1899C39.018 16.4917 38.0141 17.1598 37.2913 18.1081C35.3437 20.6083 35.4642 24.6818 37.6126 27.0095C38.8373 28.3458 40.6845 28.9708 42.3911 28.6044C43.9773 28.3027 45.3627 27.1604 46.1256 25.6517C47.4508 23.0869 47.0693 19.5522 45.0414 17.5478C43.7363 16.2546 41.8289 15.7158 40.1022 16.1899Z" fill="#170F49" fill-opacity="0.6"/>
<path d="M60.7807 12.0946C63.8125 11.4696 67.1253 12.3748 69.3941 14.6595C73.0885 18.2157 73.4901 24.8756 70.3378 28.9707C68.4304 31.5571 65.3384 32.9796 62.2865 32.8288C59.3752 32.7425 56.5041 31.1907 54.7774 28.6259C52.8298 25.8024 52.4082 21.9229 53.5125 18.6252C54.6167 15.2629 57.508 12.6981 60.7807 12.0946ZM61.383 16.1897C60.2988 16.4915 59.2949 17.1596 58.5721 18.0864C56.6446 20.5435 56.7249 24.5524 58.793 26.9016C60.0177 28.3026 61.9251 28.9923 63.692 28.6043C65.2581 28.281 66.6635 27.1603 67.4265 25.6516C68.7316 23.0652 68.3501 19.5305 66.3021 17.526C64.9971 16.2328 63.0897 15.7156 61.383 16.1897Z" fill="#170F49" fill-opacity="0.6"/>
<path d="M78.833 13.3448C81.142 11.793 84.2139 11.362 86.7036 12.6982C87.4866 13.0646 88.1291 13.6897 88.7515 14.3147C88.7716 13.7328 88.7515 13.1293 88.7716 12.5258C90.1168 12.5474 91.4621 12.5258 92.8274 12.5474V31.5572C92.8073 34.4237 92.1246 37.4627 90.1971 39.5534C88.089 41.8595 84.8564 42.5708 81.9451 42.0966C78.833 41.6009 76.1225 39.1654 74.9178 36.0833C76.1225 35.4583 77.3874 34.9626 78.6322 34.3806C79.3349 36.148 80.7605 37.6567 82.5474 38.0015C84.3344 38.3464 86.4024 37.8722 87.5669 36.2773C88.8118 34.6393 88.8118 32.3977 88.7515 30.3933C87.8279 31.3632 86.7638 32.2253 85.4788 32.5486C82.688 33.3892 79.616 32.3546 77.4677 30.3286C75.2993 28.3027 74.0143 25.1775 74.1347 22.0738C74.195 18.5607 76.0421 15.1768 78.833 13.3448ZM82.9891 16.1036C81.7644 16.3192 80.6199 17.052 79.8369 18.065C77.9496 20.4789 77.9496 24.3369 79.857 26.7077C80.9412 28.1087 82.688 28.8846 84.3745 28.6906C85.9607 28.5182 87.4264 27.4405 88.2094 25.9534C89.5346 23.4317 89.3137 20.0047 87.5268 17.8063C86.4225 16.4485 84.6556 15.7803 82.9891 16.1036Z" fill="#170F49" fill-opacity="0.6"/>
<path d="M105.353 14.444C107.762 12.0301 111.477 11.211 114.569 12.4827C117.5 13.6681 119.367 16.664 120.311 19.7461C115.954 21.6858 111.617 23.6041 107.26 25.5438C107.863 26.7724 108.786 27.8931 110.031 28.3457C111.778 29.0139 113.866 28.7768 115.332 27.5267C115.914 27.0526 116.376 26.4275 116.817 25.824C117.922 26.6215 119.026 27.3974 120.13 28.1949C118.564 30.7166 115.934 32.4839 113.103 32.7641C109.971 33.1736 106.638 31.8805 104.61 29.251C101.277 25.1128 101.598 18.1727 105.353 14.444ZM107.501 18.4313C106.819 19.4874 106.537 20.7806 106.558 22.0522C109.469 20.7591 112.38 19.4659 115.291 18.1511C114.81 16.9442 113.645 16.2114 112.46 16.0174C110.553 15.651 108.565 16.7502 107.501 18.4313Z" fill="#170F49" fill-opacity="0.6"/>
<path d="M720.531 1.87981C718.574 2.11523 715.638 3.09314 713.968 4.07106C709.481 6.66072 706.444 10.6991 704.926 16.0777C704.622 17.128 704.268 19.9893 704.285 21.3294C704.285 22.5065 704.622 25.3859 704.825 26.0741C704.926 26.4001 705.145 27.1788 705.331 27.7764C705.634 28.7905 707.102 31.9778 707.355 32.1951C707.406 32.2494 707.676 32.6116 707.929 33.0281C708.553 34.0242 710.189 35.7989 711.421 36.813C712.366 37.5917 715.031 39.2397 715.368 39.2578C715.453 39.2578 715.47 38.5697 715.419 37.6642C715.301 35.654 715.655 32.9195 716.414 30.1306C716.549 29.6598 716.651 29.0441 716.651 28.7724C716.651 28.5008 716.718 28.211 716.802 28.1205C716.887 28.0118 717.039 27.4866 717.123 26.9434C717.224 26.4001 717.393 25.567 717.511 25.0962C717.68 24.3899 717.663 24.1183 717.427 23.3577C717.089 22.1987 717.072 20.3153 717.41 19.4098C718.203 17.2548 719.08 16.4398 720.564 16.4398C722.353 16.4398 723.213 17.8886 722.876 20.3153C722.724 21.42 722.302 23.1585 722.032 23.7018C721.965 23.8647 721.847 24.3175 721.796 24.6978C721.728 25.0962 721.594 25.6576 721.509 25.9654C721.273 26.6717 721.728 28.048 722.336 28.5732C722.909 29.0622 724.107 29.207 725.204 28.9354C725.98 28.7543 726.3 28.537 727.11 27.704C728.072 26.6898 728.797 25.5127 728.797 24.9513C728.797 24.7883 728.881 24.571 728.983 24.4624C729.455 23.9553 729.708 20.0074 729.354 18.3413C728.966 16.5123 727.768 14.7194 726.216 13.6691C724.664 12.6006 721.459 12.2928 719.485 13.0171C718.101 13.5242 716.87 14.3754 716.077 15.3714C715.368 16.2587 714.626 17.7075 714.626 18.2146C714.626 18.3957 714.542 18.6311 714.441 18.7397C714.339 18.8484 714.221 19.5366 714.171 20.2791C714.086 21.3837 714.154 21.8908 714.457 22.9774C714.66 23.7199 715.031 24.5891 715.25 24.9151C715.706 25.567 715.706 25.8206 715.284 27.5591C715.166 28.0299 714.964 28.4646 714.845 28.5189C713.783 28.9535 711.623 26.219 710.898 23.5026C710.628 22.4703 710.611 18.7941 710.881 17.7075C710.999 17.2548 711.202 16.6391 711.336 16.3131C711.471 16.0052 711.59 15.6974 711.59 15.6249C711.59 15.5525 711.927 14.9368 712.349 14.2667C714.542 10.7172 718.101 8.83386 722.606 8.83386C723.635 8.83386 724.698 8.90629 724.984 8.99684C727.313 9.77555 727.937 10.0291 728.848 10.6086C730.619 11.7495 731.901 13.3069 733.183 15.9147C733.268 16.0777 733.386 16.5123 733.436 16.8745C733.504 17.2367 733.622 17.5807 733.706 17.6351C733.791 17.6894 733.858 18.8665 733.858 20.2609C733.858 22.7782 733.689 23.7923 732.981 25.8568C732.188 28.1205 730.147 30.6196 728.291 31.5975C727.228 32.1408 725.237 32.7384 724.445 32.7384C723.382 32.7384 721.29 31.7967 720.716 31.0361C720.446 30.692 720.193 30.8188 720.193 31.3077C720.193 31.4888 720.126 31.7967 720.025 31.9778C719.94 32.1408 719.788 32.6478 719.704 33.1006C719.215 35.491 718.523 37.4288 717.46 39.2397C717.14 39.8011 717.41 40.1271 718.287 40.2538C718.726 40.3263 719.316 40.453 719.586 40.5436C720.261 40.779 723.922 40.7428 725.153 40.5074C726.267 40.2901 728.072 39.7468 728.881 39.3846C733.976 37.139 737.839 32.5754 739.51 26.7623C740.404 23.6655 740.454 20.0617 739.645 16.4398C739.375 15.2627 739.29 14.9911 738.565 13.1801C737.519 10.5361 735.157 7.43942 732.762 5.53793C730.703 3.90807 728.679 2.96638 725.524 2.15145C724.647 1.93414 721.526 1.75304 720.531 1.87981ZM765.523 8.41734C764.865 8.52599 763.82 9.685 763.55 10.5905C763.263 11.5865 763.55 12.655 764.359 13.488C766.148 15.3533 769.252 13.5967 768.864 10.9164C768.628 9.21416 767.177 8.12759 765.523 8.41734ZM747.135 9.4858C746.983 9.66689 746.983 31.507 747.152 31.7605C747.236 31.9054 747.962 31.9597 749.379 31.9416L751.487 31.9235L751.572 28.2472C751.639 25.2592 751.707 24.5348 751.909 24.408C752.044 24.3175 753.191 24.2269 754.457 24.2269C757.223 24.2269 758.387 24.0096 759.653 23.2852C761.306 22.3254 762.267 20.9491 762.79 18.7579C763.111 17.3815 763.111 16.3855 762.774 14.973C762.47 13.7053 762.335 13.3974 761.61 12.3652C760.715 11.0794 759.804 10.3732 758.32 9.81177C757.493 9.52202 756.802 9.46769 752.331 9.41336C749.547 9.37714 747.202 9.41336 747.135 9.4858ZM756.397 13.9951C757.527 14.3754 758.084 14.9186 758.337 15.8966C758.657 17.1823 758.421 18.3776 757.713 19.1019C756.937 19.8806 756.245 20.0617 753.984 20.0617C752.5 20.0617 752.044 20.0074 751.842 19.772C751.622 19.5547 751.572 19.0295 751.572 16.965C751.572 13.7053 751.555 13.7234 753.9 13.7234C754.912 13.7234 755.891 13.8321 756.397 13.9951ZM785.987 12.9266C785.987 14.1762 785.903 15.3533 785.818 15.5525C785.7 15.7879 785.464 15.8966 785.059 15.8966C784.755 15.8966 784.469 15.969 784.435 16.0777C784.418 16.1682 784.418 16.802 784.469 17.4721C784.553 18.6673 784.57 18.6854 785.076 18.8122C785.363 18.8665 785.683 18.9752 785.784 19.0476C785.936 19.1382 785.987 20.5688 785.987 24.1907C785.987 29.0622 786.004 29.2433 786.375 29.9676C787.151 31.507 788.366 32.0502 790.829 31.9778L792.482 31.9235L792.533 30.1668L792.583 28.3921H792.161C791.52 28.3921 790.576 27.8488 790.474 27.4142C790.424 27.1969 790.373 25.2773 790.373 23.1223C790.373 20.1523 790.424 19.1563 790.592 19.0114C790.711 18.9027 791.183 18.7941 791.638 18.7579L792.482 18.7035V15.9871L791.554 15.9328C791.048 15.8966 790.576 15.7698 790.508 15.6611C790.441 15.5344 790.373 14.3573 790.373 13.0353V10.6448H785.987V12.9266ZM848.693 10.7535C848.626 10.8259 848.575 11.9668 848.575 13.2888C848.575 15.8603 848.558 15.8966 847.63 15.8966C847.209 15.8966 847.209 15.9147 847.259 17.291C847.31 18.6673 847.327 18.7035 847.765 18.7579C848.002 18.7941 848.288 18.9208 848.373 19.0295C848.474 19.1563 848.575 21.3475 848.626 24.1364C848.676 26.8166 848.761 29.2614 848.828 29.5511C849.031 30.3479 850.077 31.3621 851.072 31.7062C852.185 32.1046 855.02 32.1408 855.306 31.7605C855.441 31.5975 855.492 30.9456 855.458 30.0039L855.408 28.4827L854.817 28.374C854.176 28.2653 853.451 27.9032 853.265 27.5953C853.198 27.4866 853.13 25.5127 853.13 23.2128C853.13 18.4862 853.029 18.7941 854.497 18.7941C855.458 18.7941 855.543 18.613 855.458 16.965L855.408 15.9871L854.311 15.8966L853.214 15.806L853.13 13.2707L853.046 10.7354L850.92 10.681C849.756 10.6629 848.761 10.6991 848.693 10.7535ZM777.636 15.4619C776.81 15.6974 775.848 16.295 775.207 17.0012C774.431 17.8705 774.228 17.8162 774.144 16.7115L774.093 15.9871H769.876V31.9235L772.002 31.9597C774.093 32.014 774.144 31.9959 774.245 31.5975C774.296 31.3802 774.346 29.0803 774.346 26.4725C774.346 21.3113 774.363 21.1664 775.359 20.1523C775.797 19.6996 776.034 19.609 776.978 19.5547L778.075 19.4822L778.733 20.2247C779.509 21.094 779.424 20.261 779.492 27.7583C779.509 29.7503 779.526 31.5069 779.543 31.688C779.576 31.9416 779.846 31.9778 781.736 31.9416L783.878 31.9235V19.2106L783.389 18.1784C782.545 16.3855 781.246 15.5344 779.256 15.4257C778.547 15.4076 777.822 15.4076 777.636 15.4619ZM798.724 15.4619C796.902 15.9871 796.025 16.5123 794.894 17.7075C793.376 19.3555 792.684 21.2751 792.684 23.8647C792.701 28.4102 795.35 31.7786 799.264 32.177C802.604 32.5211 805.185 31.4707 806.838 29.0984C807.075 28.7543 807.581 27.6496 807.581 27.4504C807.581 27.378 806.602 27.3055 805.421 27.3055H803.262L802.756 27.8669C802.165 28.5189 801.339 28.9354 800.58 28.9354C799.82 28.9354 798.656 28.3559 798.117 27.7402C797.712 27.2512 797.121 25.8387 797.121 25.3497C797.121 25.1867 798.353 25.1324 802.317 25.1324C805.168 25.1324 807.581 25.06 807.699 24.9875C807.952 24.8064 807.716 21.927 807.345 20.8767C806.585 18.6854 805.151 16.8383 803.701 16.1863C803.279 16.0052 802.79 15.7698 802.621 15.6792C802.267 15.48 799.264 15.3171 798.724 15.4619ZM802.014 19.4279C802.671 19.9169 803.245 21.0759 803.161 21.7278C803.11 22.1443 803.076 22.1443 800.225 22.1987C796.936 22.253 796.919 22.2349 797.442 20.931C797.813 20.0255 798.555 19.2106 799.247 18.9752C800.04 18.7035 801.322 18.9208 802.014 19.4279ZM823.692 15.4619C821.735 16.0233 820.368 16.9469 819.305 18.3776C818.884 18.9571 818.546 19.5003 818.546 19.609C818.546 19.6996 818.428 20.0255 818.276 20.3334C818.125 20.6231 817.905 21.5286 817.787 22.3435C817.197 26.219 818.816 29.8409 821.853 31.4707L823.017 32.1046H825.463C827.994 32.1046 828.213 32.0502 829.765 31.1629C830.895 30.5109 832.751 27.9756 832.464 27.4685C832.397 27.378 831.435 27.3055 830.305 27.3055H828.23L827.808 27.8307C826.121 29.8771 822.966 28.8267 822.291 25.9836C822.19 25.6033 822.19 25.2773 822.275 25.2048C822.359 25.1505 824.771 25.1143 827.656 25.1324C831.773 25.1324 832.886 25.0962 832.903 24.9151C833.055 22.6514 832.042 19.3011 830.777 17.8524C830.069 17.0375 828.837 16.132 828.23 15.969C827.96 15.8966 827.656 15.7698 827.538 15.6792C827.302 15.48 824.215 15.3171 823.692 15.4619ZM826.323 18.9933C827.083 19.283 827.96 20.2972 828.095 21.0759C828.297 22.253 828.314 22.253 825.176 22.1987C822.359 22.1443 822.342 22.1443 822.291 21.7278C822.224 21.2208 822.814 19.9712 823.321 19.5004C824.046 18.8484 825.311 18.6311 826.323 18.9933ZM838.369 15.4619C834.91 16.3493 833.662 17.6713 833.645 20.4239C833.645 23.3939 835.028 24.6434 839.128 25.4222C841.945 25.9473 842.755 26.4182 842.721 27.5591C842.704 28.374 842.181 28.8992 841.135 29.1346C839.82 29.4425 838.79 29.0984 837.964 28.1024L837.306 27.3055H835.265C833.611 27.3055 833.223 27.3599 833.223 27.5591C833.223 28.0843 833.898 29.4606 834.455 30.1487C834.978 30.7463 835.383 31.0361 836.969 31.851C837.12 31.9416 837.947 32.0865 838.774 32.1951C840.309 32.3943 842.974 32.2132 843.649 31.851C843.801 31.7786 844.24 31.5432 844.611 31.3621C845.572 30.8731 846.483 29.7684 846.821 28.7181C847.192 27.5229 847.091 25.8568 846.568 24.6978C845.943 23.3396 844.29 22.3617 841.827 21.8908C838.656 21.2932 838.605 21.2751 838.099 20.7499C837.491 20.0799 837.491 19.8444 838.099 19.1201C838.588 18.5405 838.622 18.5224 839.971 18.5224C841.321 18.5224 841.355 18.5405 841.844 19.1201C842.114 19.446 842.333 19.8263 842.333 19.9712C842.333 20.1885 842.687 20.2428 844.442 20.2428C846.77 20.2428 846.703 20.2972 846.298 19.0114C845.555 16.7296 843.649 15.5706 840.477 15.4438C839.499 15.4076 838.554 15.4076 838.369 15.4619ZM815.931 15.8422C815.189 16.1139 814.16 17.0193 813.84 17.6713C813.519 18.3232 813.232 18.0516 813.148 16.965L813.064 15.9871H808.846L808.795 23.5931C808.778 27.7764 808.795 31.3802 808.846 31.6156C808.93 32.014 808.981 32.014 811.005 31.9778C812.169 31.9597 813.114 31.851 813.182 31.7424C813.249 31.6518 813.317 29.7322 813.317 27.4866C813.317 23.9372 813.35 23.3033 813.637 22.5065C814.228 20.8586 815.493 19.8806 817.079 19.8806C817.517 19.8806 817.703 19.7901 817.753 19.5547C817.871 19.0295 817.888 16.5847 817.787 16.0414C817.686 15.6068 817.602 15.5344 817.146 15.5525C816.842 15.5706 816.303 15.6974 815.931 15.8422ZM763.971 16.1139C763.921 16.2406 763.904 19.8082 763.921 24.0458L763.971 31.7424L765.979 31.8329C767.194 31.8872 768.071 31.851 768.206 31.7424C768.391 31.5975 768.442 30.0582 768.442 23.901C768.459 19.6996 768.408 16.1682 768.358 16.0777C768.189 15.806 764.056 15.8422 763.971 16.1139Z" fill="#170F49" fill-opacity="0.6"/>
<path d="M491.033 37.2236L482.195 37.05C479.333 36.9896 476.464 37.1104 473.659 36.484C469.391 35.5481 469.089 30.9591 468.773 27.1099C468.337 21.6983 468.505 16.1886 469.328 10.8223C469.792 7.81078 471.62 6.01446 474.447 5.81822C483.988 5.10875 493.592 5.19178 503.112 5.52387C504.118 5.55406 505.13 5.72011 506.121 5.9088C511.015 6.8296 511.135 12.0299 511.451 16.4074C511.767 20.8303 511.634 25.2758 511.029 29.6685C510.544 33.3064 509.616 36.3556 505.7 36.65C500.792 37.0349 495.997 37.3444 491.075 37.2463C491.075 37.2236 491.047 37.2236 491.033 37.2236ZM485.837 28.0156C489.535 25.7362 493.163 23.4946 496.84 21.2303C493.135 18.951 489.514 16.7094 485.837 14.4451V28.0156Z" fill="#170F49" fill-opacity="0.6"/>
<path d="M582.341 33.0877C582.172 33.8274 582.025 34.4086 581.877 35.0275H578.418V6.38422H582.454V16.9509C582.665 16.6641 582.77 16.5433 582.861 16.415C583.55 15.3961 584.443 14.7319 585.596 14.4753C587.432 14.0904 589 14.9583 589.555 16.8528C589.914 18.0302 590.146 19.2907 590.174 20.5209C590.23 23.6834 590.188 26.8383 590.082 30.0008C590.04 30.9669 589.766 31.9556 589.421 32.8613C588.289 35.8502 584.591 36.303 582.756 33.7142C582.643 33.5557 582.538 33.3821 582.341 33.0877ZM582.538 25.208V30.4461C582.538 31.299 582.96 31.8197 583.754 32.016C584.535 32.2122 585.168 31.8877 585.484 31.1103C585.618 30.7857 585.751 30.4461 585.758 30.1064C585.836 26.9062 585.906 23.706 585.927 20.4983C585.927 19.902 585.793 19.2831 585.625 18.702C585.308 17.6528 584.436 17.3434 583.579 17.9547C582.932 18.4227 582.538 19.0869 582.538 19.97V25.208ZM571.57 14.8829H575.795V35.0426H572.498C572.378 34.2803 572.259 33.4953 572.118 32.5745C571.893 32.9292 571.759 33.1557 571.619 33.3821C570.522 35.0803 568.968 35.6615 567.133 35.352C565.565 35.0803 564.623 33.7821 564.412 31.6537C564.349 31.0197 564.321 30.3781 564.321 29.7441C564.307 25.0269 564.321 20.2945 564.321 15.5772V14.8678H568.595V15.6904C568.595 20.2492 568.581 24.8004 568.61 29.3592C568.61 30.0083 568.673 30.68 568.778 31.3291C568.898 31.9933 569.348 32.2349 569.952 32.1896C570.93 32.1066 571.605 31.3291 571.605 30.2876V15.7735C571.57 15.4791 571.57 15.2074 571.57 14.8829ZM542.475 14.8678H546.722V15.7206C546.722 20.2568 546.708 24.7853 546.736 29.3064C546.736 29.9555 546.792 30.6272 546.919 31.2612C547.08 32.0084 547.488 32.25 548.184 32.1518C549.148 32.0084 549.731 31.2914 549.738 30.2423V15.8037V14.8979H553.964V35.0426H550.68C550.561 34.2954 550.441 33.5255 550.287 32.5519C550.076 32.8915 549.956 33.0877 549.837 33.2915C548.74 35.0199 547.2 35.6539 545.323 35.3445C543.818 35.103 542.897 33.9104 542.616 31.9556C542.538 31.3442 542.482 30.7404 542.482 30.1291C542.468 25.2307 542.468 20.3096 542.468 15.4112L542.475 14.8678ZM540.296 25.6307C540.281 26.31 540.239 26.9893 540.204 27.6685C540.042 29.7064 539.965 32.5971 538.432 34.084C537.455 35.0199 536.218 35.3596 534.938 35.4049C534.368 35.42 533.792 35.42 533.222 35.3369C530.529 34.8992 529.278 33.6236 528.828 30.4461C528.315 26.7779 528.272 23.0494 528.884 19.3812C529.517 15.5848 531.697 14.2413 535.086 14.4904C538.25 14.7319 539.663 16.9585 540.035 20.1285C540.239 21.9474 540.338 23.7891 540.296 25.6307ZM535.993 24.9363C535.993 23.6457 536.021 22.3475 535.978 21.0568C535.95 20.3096 535.859 19.5548 535.711 18.8152C535.543 17.9623 535.036 17.5547 534.404 17.5698C533.785 17.5849 533.349 17.9925 533.124 18.785C533.047 19.0793 532.962 19.3812 532.962 19.6756C532.962 21.6984 532.948 23.7287 532.934 25.7514C532.92 27.6383 532.695 29.6158 533.25 31.4197C533.419 31.9707 533.855 32.2726 534.425 32.2726C534.98 32.2726 535.346 31.9782 535.55 31.4499C535.711 31.0423 535.852 30.597 535.852 30.1593C535.901 28.4233 535.993 26.6798 535.993 24.9363ZM522.627 21.1398C522.999 19.185 523.351 17.2755 523.737 15.3584C524.223 12.9205 524.764 10.4826 525.242 8.03715C525.362 7.44088 525.587 7.29748 526.114 7.31258C527.246 7.35786 528.399 7.32767 529.608 7.32767C529.215 8.88248 528.828 10.3618 528.448 11.8185C527.246 16.3924 526.044 20.9813 524.855 25.5703C524.764 25.925 524.722 26.31 524.722 26.6873C524.708 29.1932 524.722 31.6914 524.722 34.1972V35.0124H520.595C520.581 34.786 520.552 34.5595 520.552 34.3331C520.552 32.9141 520.447 31.4876 520.566 30.0838C520.869 26.71 519.87 23.6079 519.062 20.4681C517.993 16.3169 516.91 12.1506 515.842 7.99941C515.785 7.80317 515.764 7.59184 515.708 7.35031H519.92C520.806 11.9317 521.698 16.5131 522.627 21.1398ZM603.378 26.4005H596.263C596.34 27.9327 596.368 29.3894 596.516 30.831C596.621 31.8348 597.134 32.2651 597.943 32.2726C598.787 32.2877 599.279 31.8348 599.476 30.8385C599.539 30.514 599.581 30.1895 599.609 29.8574C599.637 29.563 599.652 29.246 599.673 28.8233C600.875 28.8913 602.049 28.9667 603.209 29.0196C603.884 31.1706 602.668 33.9331 600.622 34.786C599.012 35.4652 597.359 35.4652 595.714 34.9445C594.498 34.5595 593.591 33.7293 593.183 32.4537C592.803 31.2612 592.445 30.0159 592.367 28.7705C592.156 25.6986 592.079 22.5965 592.515 19.5171C592.592 19.0039 592.726 18.5133 592.874 18.0151C593.464 15.9622 594.751 14.7017 596.741 14.4904C597.823 14.3772 598.941 14.4224 600.01 14.6187C601.74 14.9432 602.661 16.2792 603.062 18.0302C603.244 18.8529 603.378 19.6982 603.406 20.536C603.413 22.4607 603.378 24.3702 603.378 26.4005ZM599.335 23.7513C599.335 22.2342 599.349 20.8077 599.321 19.3737C599.321 19.034 599.202 18.6793 599.082 18.3548C598.843 17.7208 598.344 17.5472 597.746 17.5472C597.148 17.5472 596.769 17.8717 596.621 18.4529C596.171 20.1964 596.319 21.9776 596.333 23.7664C597.409 23.7513 598.386 23.7513 599.335 23.7513Z" fill="#170F49" fill-opacity="0.6"/>
<path d="M557.226 11.0263H553.043V7.38837H565.53V11.0037H561.375V35.0127H557.233L557.226 11.0263Z" fill="#170F49" fill-opacity="0.6"/>
<path d="M1067.36 8.29075H1062.27V0.719238H1051.09L1045.95 8.29075H1036.81L1033.76 11.5357V8.29075H1026.63V0.719238H1004.22V8.29075H972.705L967.563 0.719238H956.36V26.6787L970.618 41.8217H984.875V37.4951L988.949 41.8217H1016.44V37.4951L1020.52 41.8217H1033.76V37.4951L1037.83 41.8217H1063.29L1072.46 32.0869V13.699L1067.36 8.29075ZM973.673 19.1072H966.544V21.2705H973.673V29.9236H962.471L958.397 25.597V2.88253H966.544V10.454H973.673V19.1072ZM1004.22 29.9236H979.783L975.71 25.597V10.454H983.857V21.2705H985.893V10.454H994.04V21.2705H996.077V10.454H1004.22V29.9236ZM1014.41 29.9236H1006.26V10.454H1014.41V29.9236ZM1014.41 8.29075H1006.26V2.88253H1014.41V8.29075ZM1031.72 19.1072H1024.59V21.2705H1031.72V29.9236H1020.52L1016.44 25.597V2.88253H1024.59V10.454H1031.72V19.1072ZM1050.05 19.1072H1041.9V21.2705H1050.05V29.9236H1037.83L1033.76 25.597V14.7806L1037.83 10.454H1050.05V19.1072ZM1070.42 29.9236H1062.27V19.1072H1060.24V29.9236H1052.09V2.88253H1060.24V10.454H1066.35L1070.42 14.7806V29.9236Z" fill="#170F49" fill-opacity="0.6"/>
</svg>
