<svg width="277" height="50" viewBox="0 0 277 50" fill="none" xmlns="http://www.w3.org/2000/svg">
<rect y="10" width="30" height="30" fill="#FF3E54"/>
<line x1="15" y1="24.5" x2="75" y2="24.5" stroke="#202020"/>
<path d="M92.6904 14.125C92.6904 13.9082 92.6582 13.7148 92.5938 13.5449C92.5293 13.3691 92.4121 13.208 92.2422 13.0615C92.0723 12.915 91.832 12.7686 91.5215 12.6221C91.2109 12.4697 90.8037 12.3145 90.2998 12.1562C89.7256 11.9688 89.1777 11.7578 88.6562 11.5234C88.1406 11.2832 87.6807 11.0049 87.2764 10.6885C86.8721 10.3721 86.5527 10.0029 86.3184 9.58105C86.0898 9.15918 85.9756 8.66699 85.9756 8.10449C85.9756 7.55957 86.0957 7.06738 86.3359 6.62793C86.5762 6.18848 86.9131 5.81348 87.3467 5.50293C87.7803 5.18652 88.29 4.94629 88.876 4.78223C89.4619 4.6123 90.1064 4.52734 90.8096 4.52734C91.7471 4.52734 92.5703 4.69434 93.2793 5.02832C93.9941 5.35645 94.5508 5.81934 94.9492 6.41699C95.3477 7.00879 95.5469 7.69727 95.5469 8.48242H92.6992C92.6992 8.13672 92.626 7.83203 92.4795 7.56836C92.3389 7.29883 92.1221 7.08789 91.8291 6.93555C91.542 6.7832 91.1816 6.70703 90.748 6.70703C90.3262 6.70703 89.9717 6.77148 89.6846 6.90039C89.4033 7.02344 89.1895 7.19336 89.043 7.41016C88.9023 7.62695 88.832 7.86426 88.832 8.12207C88.832 8.32715 88.8848 8.51465 88.9902 8.68457C89.1016 8.84863 89.2598 9.00391 89.4648 9.15039C89.6758 9.29102 89.9336 9.42578 90.2383 9.55469C90.543 9.68359 90.8916 9.80664 91.2842 9.92383C91.9697 10.1406 92.5762 10.3809 93.1035 10.6445C93.6367 10.9082 94.085 11.207 94.4482 11.541C94.8115 11.875 95.084 12.2529 95.2656 12.6748C95.4531 13.0967 95.5469 13.5742 95.5469 14.1074C95.5469 14.6758 95.4355 15.1797 95.2129 15.6191C94.9961 16.0586 94.6797 16.4336 94.2637 16.7441C93.8535 17.0488 93.3613 17.2803 92.7871 17.4385C92.2129 17.5967 91.5713 17.6758 90.8623 17.6758C90.2178 17.6758 89.582 17.5938 88.9551 17.4297C88.3281 17.2598 87.7598 17.002 87.25 16.6562C86.7461 16.3105 86.3418 15.8711 86.0371 15.3379C85.7383 14.7988 85.5889 14.1602 85.5889 13.4219H88.4541C88.4541 13.8086 88.5098 14.1367 88.6211 14.4062C88.7324 14.6699 88.8906 14.8838 89.0957 15.0479C89.3066 15.2119 89.5615 15.3291 89.8604 15.3994C90.1592 15.4697 90.4932 15.5049 90.8623 15.5049C91.29 15.5049 91.6357 15.4463 91.8994 15.3291C92.1689 15.2061 92.3682 15.0391 92.4971 14.8281C92.626 14.6172 92.6904 14.3828 92.6904 14.125ZM99.7744 4V17.5H97.0322V4H99.7744ZM99.4141 12.4111L98.7285 12.4287C98.7285 11.7607 98.8105 11.1484 98.9746 10.5918C99.1445 10.0293 99.3848 9.54004 99.6953 9.12402C100.006 8.70801 100.378 8.38574 100.812 8.15723C101.251 7.92871 101.734 7.81445 102.262 7.81445C102.73 7.81445 103.158 7.88184 103.545 8.0166C103.932 8.15137 104.266 8.36523 104.547 8.6582C104.828 8.95117 105.045 9.33496 105.197 9.80957C105.35 10.2842 105.426 10.8613 105.426 11.541V17.5H102.666V11.5234C102.666 11.1191 102.607 10.8027 102.49 10.5742C102.379 10.3457 102.215 10.1846 101.998 10.0908C101.787 9.99707 101.529 9.9502 101.225 9.9502C100.867 9.9502 100.571 10.0146 100.337 10.1436C100.103 10.2666 99.918 10.4395 99.7832 10.6621C99.6484 10.8848 99.5518 11.1455 99.4932 11.4443C99.4404 11.7432 99.4141 12.0654 99.4141 12.4111ZM111.701 17.6758C110.945 17.6758 110.269 17.5557 109.671 17.3154C109.073 17.0752 108.566 16.7441 108.15 16.3223C107.74 15.8945 107.427 15.4023 107.21 14.8457C106.993 14.2891 106.885 13.6943 106.885 13.0615V12.7275C106.885 12.0186 106.984 11.3652 107.184 10.7676C107.383 10.1699 107.673 9.65137 108.054 9.21191C108.44 8.7666 108.915 8.42383 109.478 8.18359C110.04 7.9375 110.682 7.81445 111.402 7.81445C112.076 7.81445 112.677 7.92578 113.204 8.14844C113.731 8.36523 114.177 8.67871 114.54 9.08887C114.903 9.49316 115.179 9.98242 115.366 10.5566C115.56 11.125 115.656 11.7637 115.656 12.4727V13.5977H107.992V11.8311H112.967V11.6201C112.967 11.2861 112.905 10.9932 112.782 10.7412C112.665 10.4893 112.489 10.2959 112.255 10.1611C112.026 10.0205 111.736 9.9502 111.385 9.9502C111.051 9.9502 110.772 10.0205 110.55 10.1611C110.327 10.3018 110.148 10.501 110.014 10.7588C109.885 11.0107 109.791 11.3066 109.732 11.6465C109.674 11.9805 109.645 12.3408 109.645 12.7275V13.0615C109.645 13.4307 109.694 13.7676 109.794 14.0723C109.894 14.377 110.04 14.6377 110.233 14.8545C110.427 15.0713 110.661 15.2412 110.937 15.3643C111.212 15.4873 111.525 15.5488 111.877 15.5488C112.311 15.5488 112.724 15.4668 113.116 15.3027C113.509 15.1328 113.849 14.8691 114.136 14.5117L115.419 15.9795C115.226 16.2607 114.953 16.5332 114.602 16.7969C114.256 17.0547 113.84 17.2656 113.354 17.4297C112.867 17.5938 112.316 17.6758 111.701 17.6758ZM119.743 10.2051V17.5H117.001V7.99023H119.576L119.743 10.2051ZM122.582 7.91992L122.538 10.4775C122.421 10.46 122.269 10.4453 122.081 10.4336C121.894 10.416 121.732 10.4072 121.598 10.4072C121.246 10.4072 120.941 10.4512 120.684 10.5391C120.432 10.6211 120.221 10.7441 120.051 10.9082C119.887 11.0723 119.764 11.2773 119.682 11.5234C119.6 11.7637 119.559 12.042 119.559 12.3584L119.04 12.1035C119.04 11.4766 119.102 10.9023 119.225 10.3809C119.348 9.85938 119.526 9.4082 119.761 9.02734C119.995 8.64062 120.282 8.3418 120.622 8.13086C120.962 7.91992 121.349 7.81445 121.782 7.81445C121.923 7.81445 122.066 7.82324 122.213 7.84082C122.359 7.8584 122.482 7.88477 122.582 7.91992ZM126.458 10.2051V17.5H123.716V7.99023H126.291L126.458 10.2051ZM129.297 7.91992L129.253 10.4775C129.136 10.46 128.983 10.4453 128.796 10.4336C128.608 10.416 128.447 10.4072 128.312 10.4072C127.961 10.4072 127.656 10.4512 127.398 10.5391C127.146 10.6211 126.936 10.7441 126.766 10.9082C126.602 11.0723 126.479 11.2773 126.396 11.5234C126.314 11.7637 126.273 12.042 126.273 12.3584L125.755 12.1035C125.755 11.4766 125.816 10.9023 125.939 10.3809C126.062 9.85938 126.241 9.4082 126.476 9.02734C126.71 8.64062 126.997 8.3418 127.337 8.13086C127.677 7.91992 128.063 7.81445 128.497 7.81445C128.638 7.81445 128.781 7.82324 128.928 7.84082C129.074 7.8584 129.197 7.88477 129.297 7.91992ZM133.313 7.99023V17.5H130.562V7.99023H133.313ZM130.396 5.5293C130.396 5.13086 130.536 4.80566 130.817 4.55371C131.099 4.2959 131.468 4.16699 131.925 4.16699C132.382 4.16699 132.751 4.2959 133.032 4.55371C133.319 4.80566 133.463 5.13086 133.463 5.5293C133.463 5.92188 133.319 6.24707 133.032 6.50488C132.751 6.75684 132.382 6.88281 131.925 6.88281C131.468 6.88281 131.099 6.75684 130.817 6.50488C130.536 6.24707 130.396 5.92188 130.396 5.5293ZM147.271 13.2109H150.118C150.071 14.0898 149.831 14.8662 149.397 15.54C148.97 16.208 148.375 16.7324 147.613 17.1133C146.852 17.4883 145.946 17.6758 144.897 17.6758C144.06 17.6758 143.31 17.5322 142.647 17.2451C141.985 16.958 141.423 16.5479 140.96 16.0146C140.503 15.4756 140.151 14.8281 139.905 14.0723C139.665 13.3105 139.545 12.4521 139.545 11.4971V10.7148C139.545 9.75977 139.671 8.90137 139.923 8.13965C140.175 7.37793 140.535 6.72754 141.004 6.18848C141.473 5.64941 142.035 5.23633 142.691 4.94922C143.348 4.66211 144.08 4.51855 144.889 4.51855C145.979 4.51855 146.898 4.71484 147.648 5.10742C148.398 5.5 148.979 6.03906 149.389 6.72461C149.805 7.41016 150.054 8.19238 150.136 9.07129H147.279C147.256 8.57324 147.162 8.1543 146.998 7.81445C146.834 7.46875 146.582 7.20801 146.242 7.03223C145.902 6.85645 145.451 6.76855 144.889 6.76855C144.479 6.76855 144.118 6.84473 143.808 6.99707C143.503 7.14941 143.248 7.38672 143.043 7.70898C142.844 8.03125 142.694 8.44141 142.595 8.93945C142.495 9.43164 142.445 10.0176 142.445 10.6973V11.4971C142.445 12.1709 142.489 12.7539 142.577 13.2461C142.665 13.7383 142.806 14.1455 142.999 14.4678C143.198 14.79 143.453 15.0303 143.764 15.1885C144.074 15.3467 144.452 15.4258 144.897 15.4258C145.407 15.4258 145.832 15.3467 146.172 15.1885C146.512 15.0244 146.772 14.7783 146.954 14.4502C147.136 14.1221 147.241 13.709 147.271 13.2109ZM154.319 10.2051V17.5H151.577V7.99023H154.152L154.319 10.2051ZM157.158 7.91992L157.114 10.4775C156.997 10.46 156.845 10.4453 156.657 10.4336C156.47 10.416 156.309 10.4072 156.174 10.4072C155.822 10.4072 155.518 10.4512 155.26 10.5391C155.008 10.6211 154.797 10.7441 154.627 10.9082C154.463 11.0723 154.34 11.2773 154.258 11.5234C154.176 11.7637 154.135 12.042 154.135 12.3584L153.616 12.1035C153.616 11.4766 153.678 10.9023 153.801 10.3809C153.924 9.85938 154.103 9.4082 154.337 9.02734C154.571 8.64062 154.858 8.3418 155.198 8.13086C155.538 7.91992 155.925 7.81445 156.358 7.81445C156.499 7.81445 156.643 7.82324 156.789 7.84082C156.936 7.8584 157.059 7.88477 157.158 7.91992ZM157.589 12.8418V12.6572C157.589 11.96 157.688 11.3184 157.888 10.7324C158.087 10.1406 158.38 9.62793 158.767 9.19434C159.153 8.76074 159.628 8.42383 160.19 8.18359C160.753 7.9375 161.397 7.81445 162.124 7.81445C162.862 7.81445 163.513 7.9375 164.075 8.18359C164.644 8.42383 165.121 8.76074 165.508 9.19434C165.895 9.62793 166.188 10.1406 166.387 10.7324C166.586 11.3184 166.686 11.96 166.686 12.6572V12.8418C166.686 13.5332 166.586 14.1748 166.387 14.7666C166.188 15.3525 165.895 15.8652 165.508 16.3047C165.121 16.7383 164.646 17.0752 164.084 17.3154C163.521 17.5557 162.874 17.6758 162.142 17.6758C161.415 17.6758 160.768 17.5557 160.199 17.3154C159.631 17.0752 159.153 16.7383 158.767 16.3047C158.38 15.8652 158.087 15.3525 157.888 14.7666C157.688 14.1748 157.589 13.5332 157.589 12.8418ZM160.34 12.6572V12.8418C160.34 13.2168 160.369 13.5684 160.428 13.8965C160.492 14.2246 160.595 14.5117 160.735 14.7578C160.876 15.0039 161.061 15.1973 161.289 15.3379C161.523 15.4727 161.808 15.54 162.142 15.54C162.476 15.54 162.757 15.4727 162.985 15.3379C163.214 15.1973 163.398 15.0039 163.539 14.7578C163.68 14.5117 163.779 14.2246 163.838 13.8965C163.902 13.5684 163.935 13.2168 163.935 12.8418V12.6572C163.935 12.2881 163.902 11.9424 163.838 11.6201C163.779 11.292 163.68 11.002 163.539 10.75C163.398 10.498 163.211 10.3018 162.977 10.1611C162.748 10.0205 162.464 9.9502 162.124 9.9502C161.796 9.9502 161.518 10.0205 161.289 10.1611C161.061 10.3018 160.876 10.498 160.735 10.75C160.595 11.002 160.492 11.292 160.428 11.6201C160.369 11.9424 160.34 12.2881 160.34 12.6572ZM170.816 10.0205V17.5H168.065V7.99023H170.649L170.816 10.0205ZM170.456 12.4111L169.771 12.4287C169.771 11.7139 169.858 11.0723 170.034 10.5039C170.21 9.93555 170.459 9.45215 170.781 9.05371C171.109 8.64941 171.499 8.3418 171.95 8.13086C172.407 7.91992 172.911 7.81445 173.462 7.81445C173.907 7.81445 174.314 7.87891 174.684 8.00781C175.053 8.13672 175.369 8.34473 175.633 8.63184C175.902 8.91309 176.107 9.28809 176.248 9.75684C176.389 10.2197 176.459 10.791 176.459 11.4707V17.5H173.699V11.4619C173.699 11.0635 173.644 10.7559 173.532 10.5391C173.421 10.3223 173.257 10.1699 173.04 10.082C172.829 9.99414 172.571 9.9502 172.267 9.9502C171.944 9.9502 171.669 10.0146 171.44 10.1436C171.212 10.2666 171.024 10.4395 170.878 10.6621C170.731 10.8848 170.623 11.1455 170.553 11.4443C170.488 11.7432 170.456 12.0654 170.456 12.4111ZM181.144 7.99023V17.5H178.393V7.99023H181.144ZM178.226 5.5293C178.226 5.13086 178.366 4.80566 178.647 4.55371C178.929 4.2959 179.298 4.16699 179.755 4.16699C180.212 4.16699 180.581 4.2959 180.862 4.55371C181.149 4.80566 181.293 5.13086 181.293 5.5293C181.293 5.92188 181.149 6.24707 180.862 6.50488C180.581 6.75684 180.212 6.88281 179.755 6.88281C179.298 6.88281 178.929 6.75684 178.647 6.50488C178.366 6.24707 178.226 5.92188 178.226 5.5293ZM185.811 10.0205V17.5H183.06V7.99023H185.644L185.811 10.0205ZM185.45 12.4111L184.765 12.4287C184.765 11.7139 184.853 11.0723 185.028 10.5039C185.204 9.93555 185.453 9.45215 185.775 9.05371C186.104 8.64941 186.493 8.3418 186.944 8.13086C187.401 7.91992 187.905 7.81445 188.456 7.81445C188.901 7.81445 189.309 7.87891 189.678 8.00781C190.047 8.13672 190.363 8.34473 190.627 8.63184C190.896 8.91309 191.102 9.28809 191.242 9.75684C191.383 10.2197 191.453 10.791 191.453 11.4707V17.5H188.693V11.4619C188.693 11.0635 188.638 10.7559 188.526 10.5391C188.415 10.3223 188.251 10.1699 188.034 10.082C187.823 9.99414 187.565 9.9502 187.261 9.9502C186.938 9.9502 186.663 10.0146 186.435 10.1436C186.206 10.2666 186.019 10.4395 185.872 10.6621C185.726 10.8848 185.617 11.1455 185.547 11.4443C185.482 11.7432 185.45 12.0654 185.45 12.4111Z" fill="#202020"/>
<path d="M90.5156 38.0391H87.4766V36.8125H90.5156C91.1042 36.8125 91.5807 36.7188 91.9453 36.5312C92.3099 36.3438 92.5755 36.0833 92.7422 35.75C92.9141 35.4167 93 35.0365 93 34.6094C93 34.2188 92.9141 33.8516 92.7422 33.5078C92.5755 33.1641 92.3099 32.888 91.9453 32.6797C91.5807 32.4661 91.1042 32.3594 90.5156 32.3594H87.8281V42.5H86.3203V31.125H90.5156C91.375 31.125 92.1016 31.2734 92.6953 31.5703C93.2891 31.8672 93.7396 32.2786 94.0469 32.8047C94.3542 33.3255 94.5078 33.9219 94.5078 34.5938C94.5078 35.3229 94.3542 35.9453 94.0469 36.4609C93.7396 36.9766 93.2891 37.3698 92.6953 37.6406C92.1016 37.9062 91.375 38.0391 90.5156 38.0391ZM97.6406 35.375V42.5H96.1953V34.0469H97.6016L97.6406 35.375ZM100.281 34L100.273 35.3438C100.154 35.3177 100.039 35.3021 99.9297 35.2969C99.8255 35.2865 99.7057 35.2812 99.5703 35.2812C99.237 35.2812 98.9427 35.3333 98.6875 35.4375C98.4323 35.5417 98.2161 35.6875 98.0391 35.875C97.862 36.0625 97.7214 36.2865 97.6172 36.5469C97.5182 36.8021 97.4531 37.0833 97.4219 37.3906L97.0156 37.625C97.0156 37.1146 97.0651 36.6354 97.1641 36.1875C97.2682 35.7396 97.4271 35.3438 97.6406 35C97.8542 34.651 98.125 34.3802 98.4531 34.1875C98.7865 33.9896 99.1823 33.8906 99.6406 33.8906C99.7448 33.8906 99.8646 33.9036 100 33.9297C100.135 33.9505 100.229 33.974 100.281 34ZM101.078 38.3672V38.1875C101.078 37.5781 101.167 37.013 101.344 36.4922C101.521 35.9661 101.776 35.5104 102.109 35.125C102.443 34.7344 102.846 34.4323 103.32 34.2188C103.794 34 104.326 33.8906 104.914 33.8906C105.508 33.8906 106.042 34 106.516 34.2188C106.995 34.4323 107.401 34.7344 107.734 35.125C108.073 35.5104 108.331 35.9661 108.508 36.4922C108.685 37.013 108.773 37.5781 108.773 38.1875V38.3672C108.773 38.9766 108.685 39.5417 108.508 40.0625C108.331 40.5833 108.073 41.0391 107.734 41.4297C107.401 41.8151 106.997 42.1172 106.523 42.3359C106.055 42.5495 105.523 42.6562 104.93 42.6562C104.336 42.6562 103.802 42.5495 103.328 42.3359C102.854 42.1172 102.448 41.8151 102.109 41.4297C101.776 41.0391 101.521 40.5833 101.344 40.0625C101.167 39.5417 101.078 38.9766 101.078 38.3672ZM102.523 38.1875V38.3672C102.523 38.7891 102.573 39.1875 102.672 39.5625C102.771 39.9323 102.919 40.2604 103.117 40.5469C103.32 40.8333 103.573 41.0599 103.875 41.2266C104.177 41.388 104.529 41.4688 104.93 41.4688C105.326 41.4688 105.672 41.388 105.969 41.2266C106.271 41.0599 106.521 40.8333 106.719 40.5469C106.917 40.2604 107.065 39.9323 107.164 39.5625C107.268 39.1875 107.32 38.7891 107.32 38.3672V38.1875C107.32 37.7708 107.268 37.3776 107.164 37.0078C107.065 36.6328 106.914 36.3021 106.711 36.0156C106.513 35.724 106.263 35.4948 105.961 35.3281C105.664 35.1615 105.315 35.0781 104.914 35.0781C104.518 35.0781 104.169 35.1615 103.867 35.3281C103.57 35.4948 103.32 35.724 103.117 36.0156C102.919 36.3021 102.771 36.6328 102.672 37.0078C102.573 37.3776 102.523 37.7708 102.523 38.1875ZM110.625 34.0469H112.078V43.5078C112.078 44.0234 111.995 44.4609 111.828 44.8203C111.667 45.1797 111.422 45.4505 111.094 45.6328C110.771 45.8203 110.362 45.9141 109.867 45.9141C109.737 45.9141 109.586 45.901 109.414 45.875C109.237 45.849 109.089 45.8177 108.969 45.7812L108.977 44.6172C109.076 44.638 109.188 44.6536 109.312 44.6641C109.438 44.6797 109.547 44.6875 109.641 44.6875C109.854 44.6875 110.034 44.6484 110.18 44.5703C110.326 44.4922 110.435 44.3672 110.508 44.1953C110.586 44.0234 110.625 43.7943 110.625 43.5078V34.0469ZM110.477 31.8047C110.477 31.5703 110.549 31.3724 110.695 31.2109C110.841 31.0495 111.052 30.9688 111.328 30.9688C111.609 30.9688 111.823 31.0495 111.969 31.2109C112.115 31.3724 112.188 31.5703 112.188 31.8047C112.188 32.0286 112.115 32.2214 111.969 32.3828C111.823 32.5391 111.609 32.6172 111.328 32.6172C111.052 32.6172 110.841 32.5391 110.695 32.3828C110.549 32.2214 110.477 32.0286 110.477 31.8047ZM117.922 42.6562C117.333 42.6562 116.799 42.5573 116.32 42.3594C115.846 42.1562 115.438 41.8724 115.094 41.5078C114.755 41.1432 114.495 40.7109 114.312 40.2109C114.13 39.7109 114.039 39.1641 114.039 38.5703V38.2422C114.039 37.5547 114.141 36.9427 114.344 36.4062C114.547 35.8646 114.823 35.4062 115.172 35.0312C115.521 34.6562 115.917 34.3724 116.359 34.1797C116.802 33.987 117.26 33.8906 117.734 33.8906C118.339 33.8906 118.859 33.9948 119.297 34.2031C119.74 34.4115 120.102 34.7031 120.383 35.0781C120.664 35.4479 120.872 35.8854 121.008 36.3906C121.143 36.8906 121.211 37.4375 121.211 38.0312V38.6797H114.898V37.5H119.766V37.3906C119.745 37.0156 119.667 36.651 119.531 36.2969C119.401 35.9427 119.193 35.651 118.906 35.4219C118.62 35.1927 118.229 35.0781 117.734 35.0781C117.406 35.0781 117.104 35.1484 116.828 35.2891C116.552 35.4245 116.315 35.6276 116.117 35.8984C115.919 36.1693 115.766 36.5 115.656 36.8906C115.547 37.2812 115.492 37.7318 115.492 38.2422V38.5703C115.492 38.9714 115.547 39.349 115.656 39.7031C115.771 40.0521 115.935 40.3594 116.148 40.625C116.367 40.8906 116.63 41.099 116.938 41.25C117.25 41.401 117.604 41.4766 118 41.4766C118.51 41.4766 118.943 41.3724 119.297 41.1641C119.651 40.9557 119.961 40.6771 120.227 40.3281L121.102 41.0234C120.919 41.2995 120.688 41.5625 120.406 41.8125C120.125 42.0625 119.779 42.2656 119.367 42.4219C118.961 42.5781 118.479 42.6562 117.922 42.6562ZM126.281 41.4688C126.625 41.4688 126.943 41.3984 127.234 41.2578C127.526 41.1172 127.766 40.9245 127.953 40.6797C128.141 40.4297 128.247 40.1458 128.273 39.8281H129.648C129.622 40.3281 129.453 40.7943 129.141 41.2266C128.833 41.6536 128.43 42 127.93 42.2656C127.43 42.526 126.88 42.6562 126.281 42.6562C125.646 42.6562 125.091 42.5443 124.617 42.3203C124.148 42.0964 123.758 41.7891 123.445 41.3984C123.138 41.0078 122.906 40.5599 122.75 40.0547C122.599 39.5443 122.523 39.0052 122.523 38.4375V38.1094C122.523 37.5417 122.599 37.0052 122.75 36.5C122.906 35.9896 123.138 35.5391 123.445 35.1484C123.758 34.7578 124.148 34.4505 124.617 34.2266C125.091 34.0026 125.646 33.8906 126.281 33.8906C126.943 33.8906 127.521 34.026 128.016 34.2969C128.51 34.5625 128.898 34.9271 129.18 35.3906C129.466 35.849 129.622 36.3698 129.648 36.9531H128.273C128.247 36.6042 128.148 36.2891 127.977 36.0078C127.81 35.7266 127.581 35.5026 127.289 35.3359C127.003 35.1641 126.667 35.0781 126.281 35.0781C125.839 35.0781 125.466 35.1667 125.164 35.3438C124.867 35.5156 124.63 35.75 124.453 36.0469C124.281 36.3385 124.156 36.6641 124.078 37.0234C124.005 37.3776 123.969 37.7396 123.969 38.1094V38.4375C123.969 38.8073 124.005 39.1719 124.078 39.5312C124.151 39.8906 124.273 40.2161 124.445 40.5078C124.622 40.7995 124.859 41.0339 125.156 41.2109C125.458 41.3828 125.833 41.4688 126.281 41.4688ZM134.812 34.0469V35.1562H130.242V34.0469H134.812ZM131.789 31.9922H133.234V40.4062C133.234 40.6927 133.279 40.9089 133.367 41.0547C133.456 41.2005 133.57 41.2969 133.711 41.3438C133.852 41.3906 134.003 41.4141 134.164 41.4141C134.284 41.4141 134.409 41.4036 134.539 41.3828C134.674 41.3568 134.776 41.3359 134.844 41.3203L134.852 42.5C134.737 42.5365 134.586 42.5703 134.398 42.6016C134.216 42.638 133.995 42.6562 133.734 42.6562C133.38 42.6562 133.055 42.5859 132.758 42.4453C132.461 42.3047 132.224 42.0703 132.047 41.7422C131.875 41.4089 131.789 40.9609 131.789 40.3984V31.9922ZM141.172 31.125H142.633L146.359 40.3984L150.078 31.125H151.547L146.922 42.5H145.781L141.172 31.125ZM140.695 31.125H141.984L142.195 38.0625V42.5H140.695V31.125ZM150.727 31.125H152.016V42.5H150.516V38.0625L150.727 31.125ZM159.43 41.0547V36.7031C159.43 36.3698 159.362 36.0807 159.227 35.8359C159.096 35.5859 158.898 35.3932 158.633 35.2578C158.367 35.1224 158.039 35.0547 157.648 35.0547C157.284 35.0547 156.964 35.1172 156.688 35.2422C156.417 35.3672 156.203 35.5312 156.047 35.7344C155.896 35.9375 155.82 36.1562 155.82 36.3906H154.375C154.375 36.0885 154.453 35.7891 154.609 35.4922C154.766 35.1953 154.99 34.9271 155.281 34.6875C155.578 34.4427 155.932 34.25 156.344 34.1094C156.76 33.9635 157.224 33.8906 157.734 33.8906C158.349 33.8906 158.891 33.9948 159.359 34.2031C159.833 34.4115 160.203 34.7266 160.469 35.1484C160.74 35.5651 160.875 36.0885 160.875 36.7188V40.6562C160.875 40.9375 160.898 41.237 160.945 41.5547C160.997 41.8724 161.073 42.1458 161.172 42.375V42.5H159.664C159.591 42.3333 159.534 42.112 159.492 41.8359C159.451 41.5547 159.43 41.2943 159.43 41.0547ZM159.68 37.375L159.695 38.3906H158.234C157.823 38.3906 157.456 38.4245 157.133 38.4922C156.81 38.5547 156.539 38.651 156.32 38.7812C156.102 38.9115 155.935 39.0755 155.82 39.2734C155.706 39.4661 155.648 39.6927 155.648 39.9531C155.648 40.2188 155.708 40.4609 155.828 40.6797C155.948 40.8984 156.128 41.0729 156.367 41.2031C156.612 41.3281 156.911 41.3906 157.266 41.3906C157.708 41.3906 158.099 41.2969 158.438 41.1094C158.776 40.9219 159.044 40.6927 159.242 40.4219C159.445 40.151 159.555 39.888 159.57 39.6328L160.188 40.3281C160.151 40.5469 160.052 40.7891 159.891 41.0547C159.729 41.3203 159.513 41.5755 159.242 41.8203C158.977 42.0599 158.659 42.2604 158.289 42.4219C157.924 42.5781 157.513 42.6562 157.055 42.6562C156.482 42.6562 155.979 42.5443 155.547 42.3203C155.12 42.0964 154.786 41.7969 154.547 41.4219C154.312 41.0417 154.195 40.6172 154.195 40.1484C154.195 39.6953 154.284 39.2969 154.461 38.9531C154.638 38.6042 154.893 38.3151 155.227 38.0859C155.56 37.8516 155.961 37.6745 156.43 37.5547C156.898 37.4349 157.422 37.375 158 37.375H159.68ZM164.594 35.8516V42.5H163.148V34.0469H164.516L164.594 35.8516ZM164.25 37.9531L163.648 37.9297C163.654 37.3516 163.74 36.8177 163.906 36.3281C164.073 35.8333 164.307 35.4036 164.609 35.0391C164.911 34.6745 165.271 34.3932 165.688 34.1953C166.109 33.9922 166.576 33.8906 167.086 33.8906C167.503 33.8906 167.878 33.9479 168.211 34.0625C168.544 34.1719 168.828 34.349 169.062 34.5938C169.302 34.8385 169.484 35.1562 169.609 35.5469C169.734 35.9323 169.797 36.4036 169.797 36.9609V42.5H168.344V36.9453C168.344 36.5026 168.279 36.1484 168.148 35.8828C168.018 35.612 167.828 35.4167 167.578 35.2969C167.328 35.1719 167.021 35.1094 166.656 35.1094C166.297 35.1094 165.969 35.1849 165.672 35.3359C165.38 35.487 165.128 35.6953 164.914 35.9609C164.706 36.2266 164.542 36.5312 164.422 36.875C164.307 37.2135 164.25 37.5729 164.25 37.9531ZM176.977 41.0547V36.7031C176.977 36.3698 176.909 36.0807 176.773 35.8359C176.643 35.5859 176.445 35.3932 176.18 35.2578C175.914 35.1224 175.586 35.0547 175.195 35.0547C174.831 35.0547 174.51 35.1172 174.234 35.2422C173.964 35.3672 173.75 35.5312 173.594 35.7344C173.443 35.9375 173.367 36.1562 173.367 36.3906H171.922C171.922 36.0885 172 35.7891 172.156 35.4922C172.312 35.1953 172.536 34.9271 172.828 34.6875C173.125 34.4427 173.479 34.25 173.891 34.1094C174.307 33.9635 174.771 33.8906 175.281 33.8906C175.896 33.8906 176.438 33.9948 176.906 34.2031C177.38 34.4115 177.75 34.7266 178.016 35.1484C178.286 35.5651 178.422 36.0885 178.422 36.7188V40.6562C178.422 40.9375 178.445 41.237 178.492 41.5547C178.544 41.8724 178.62 42.1458 178.719 42.375V42.5H177.211C177.138 42.3333 177.081 42.112 177.039 41.8359C176.997 41.5547 176.977 41.2943 176.977 41.0547ZM177.227 37.375L177.242 38.3906H175.781C175.37 38.3906 175.003 38.4245 174.68 38.4922C174.357 38.5547 174.086 38.651 173.867 38.7812C173.648 38.9115 173.482 39.0755 173.367 39.2734C173.253 39.4661 173.195 39.6927 173.195 39.9531C173.195 40.2188 173.255 40.4609 173.375 40.6797C173.495 40.8984 173.674 41.0729 173.914 41.2031C174.159 41.3281 174.458 41.3906 174.812 41.3906C175.255 41.3906 175.646 41.2969 175.984 41.1094C176.323 40.9219 176.591 40.6927 176.789 40.4219C176.992 40.151 177.102 39.888 177.117 39.6328L177.734 40.3281C177.698 40.5469 177.599 40.7891 177.438 41.0547C177.276 41.3203 177.06 41.5755 176.789 41.8203C176.523 42.0599 176.206 42.2604 175.836 42.4219C175.471 42.5781 175.06 42.6562 174.602 42.6562C174.029 42.6562 173.526 42.5443 173.094 42.3203C172.667 42.0964 172.333 41.7969 172.094 41.4219C171.859 41.0417 171.742 40.6172 171.742 40.1484C171.742 39.6953 171.831 39.2969 172.008 38.9531C172.185 38.6042 172.44 38.3151 172.773 38.0859C173.107 37.8516 173.508 37.6745 173.977 37.5547C174.445 37.4349 174.969 37.375 175.547 37.375H177.227ZM186.172 34.0469H187.484V42.3203C187.484 43.0651 187.333 43.7005 187.031 44.2266C186.729 44.7526 186.307 45.151 185.766 45.4219C185.229 45.6979 184.609 45.8359 183.906 45.8359C183.615 45.8359 183.271 45.7891 182.875 45.6953C182.484 45.6068 182.099 45.4531 181.719 45.2344C181.344 45.0208 181.029 44.7318 180.773 44.3672L181.531 43.5078C181.885 43.9349 182.255 44.2318 182.641 44.3984C183.031 44.5651 183.417 44.6484 183.797 44.6484C184.255 44.6484 184.651 44.5625 184.984 44.3906C185.318 44.2188 185.576 43.9635 185.758 43.625C185.945 43.2917 186.039 42.8802 186.039 42.3906V35.9062L186.172 34.0469ZM180.352 38.3672V38.2031C180.352 37.5573 180.427 36.9714 180.578 36.4453C180.734 35.9141 180.956 35.4583 181.242 35.0781C181.534 34.6979 181.885 34.4062 182.297 34.2031C182.708 33.9948 183.172 33.8906 183.688 33.8906C184.219 33.8906 184.682 33.9844 185.078 34.1719C185.479 34.3542 185.818 34.6224 186.094 34.9766C186.375 35.3255 186.596 35.7474 186.758 36.2422C186.919 36.737 187.031 37.2969 187.094 37.9219V38.6406C187.036 39.2604 186.924 39.8177 186.758 40.3125C186.596 40.8073 186.375 41.2292 186.094 41.5781C185.818 41.9271 185.479 42.1953 185.078 42.3828C184.677 42.5651 184.208 42.6562 183.672 42.6562C183.167 42.6562 182.708 42.5495 182.297 42.3359C181.891 42.1224 181.542 41.8229 181.25 41.4375C180.958 41.0521 180.734 40.599 180.578 40.0781C180.427 39.5521 180.352 38.9818 180.352 38.3672ZM181.797 38.2031V38.3672C181.797 38.7891 181.839 39.1849 181.922 39.5547C182.01 39.9245 182.143 40.25 182.32 40.5312C182.503 40.8125 182.734 41.0339 183.016 41.1953C183.297 41.3516 183.633 41.4297 184.023 41.4297C184.503 41.4297 184.898 41.3281 185.211 41.125C185.523 40.9219 185.771 40.6536 185.953 40.3203C186.141 39.987 186.286 39.625 186.391 39.2344V37.3516C186.333 37.0651 186.245 36.7891 186.125 36.5234C186.01 36.2526 185.859 36.013 185.672 35.8047C185.49 35.5911 185.263 35.4219 184.992 35.2969C184.721 35.1719 184.404 35.1094 184.039 35.1094C183.643 35.1094 183.302 35.1927 183.016 35.3594C182.734 35.5208 182.503 35.7448 182.32 36.0312C182.143 36.3125 182.01 36.6406 181.922 37.0156C181.839 37.3854 181.797 37.7812 181.797 38.2031ZM193.188 42.6562C192.599 42.6562 192.065 42.5573 191.586 42.3594C191.112 42.1562 190.703 41.8724 190.359 41.5078C190.021 41.1432 189.76 40.7109 189.578 40.2109C189.396 39.7109 189.305 39.1641 189.305 38.5703V38.2422C189.305 37.5547 189.406 36.9427 189.609 36.4062C189.812 35.8646 190.089 35.4062 190.438 35.0312C190.786 34.6562 191.182 34.3724 191.625 34.1797C192.068 33.987 192.526 33.8906 193 33.8906C193.604 33.8906 194.125 33.9948 194.562 34.2031C195.005 34.4115 195.367 34.7031 195.648 35.0781C195.93 35.4479 196.138 35.8854 196.273 36.3906C196.409 36.8906 196.477 37.4375 196.477 38.0312V38.6797H190.164V37.5H195.031V37.3906C195.01 37.0156 194.932 36.651 194.797 36.2969C194.667 35.9427 194.458 35.651 194.172 35.4219C193.885 35.1927 193.495 35.0781 193 35.0781C192.672 35.0781 192.37 35.1484 192.094 35.2891C191.818 35.4245 191.581 35.6276 191.383 35.8984C191.185 36.1693 191.031 36.5 190.922 36.8906C190.812 37.2812 190.758 37.7318 190.758 38.2422V38.5703C190.758 38.9714 190.812 39.349 190.922 39.7031C191.036 40.0521 191.201 40.3594 191.414 40.625C191.633 40.8906 191.896 41.099 192.203 41.25C192.516 41.401 192.87 41.4766 193.266 41.4766C193.776 41.4766 194.208 41.3724 194.562 41.1641C194.917 40.9557 195.227 40.6771 195.492 40.3281L196.367 41.0234C196.185 41.2995 195.953 41.5625 195.672 41.8125C195.391 42.0625 195.044 42.2656 194.633 42.4219C194.227 42.5781 193.745 42.6562 193.188 42.6562ZM199.609 35.375V42.5H198.164V34.0469H199.57L199.609 35.375ZM202.25 34L202.242 35.3438C202.122 35.3177 202.008 35.3021 201.898 35.2969C201.794 35.2865 201.674 35.2812 201.539 35.2812C201.206 35.2812 200.911 35.3333 200.656 35.4375C200.401 35.5417 200.185 35.6875 200.008 35.875C199.831 36.0625 199.69 36.2865 199.586 36.5469C199.487 36.8021 199.422 37.0833 199.391 37.3906L198.984 37.625C198.984 37.1146 199.034 36.6354 199.133 36.1875C199.237 35.7396 199.396 35.3438 199.609 35C199.823 34.651 200.094 34.3802 200.422 34.1875C200.755 33.9896 201.151 33.8906 201.609 33.8906C201.714 33.8906 201.833 33.9036 201.969 33.9297C202.104 33.9505 202.198 33.974 202.25 34ZM203.93 40.7812V41.9453C203.93 42.4193 203.81 42.9193 203.57 43.4453C203.331 43.9766 202.995 44.4193 202.562 44.7734L201.742 44.2031C201.909 43.974 202.049 43.7396 202.164 43.5C202.279 43.2656 202.365 43.0208 202.422 42.7656C202.484 42.5156 202.516 42.25 202.516 41.9688V40.7812H203.93ZM213.852 31.125V42.5H212.367V31.125H213.852ZM217.508 31.125V32.3594H208.719V31.125H217.508ZM221.703 42.6562C221.115 42.6562 220.581 42.5573 220.102 42.3594C219.628 42.1562 219.219 41.8724 218.875 41.5078C218.536 41.1432 218.276 40.7109 218.094 40.2109C217.911 39.7109 217.82 39.1641 217.82 38.5703V38.2422C217.82 37.5547 217.922 36.9427 218.125 36.4062C218.328 35.8646 218.604 35.4062 218.953 35.0312C219.302 34.6562 219.698 34.3724 220.141 34.1797C220.583 33.987 221.042 33.8906 221.516 33.8906C222.12 33.8906 222.641 33.9948 223.078 34.2031C223.521 34.4115 223.883 34.7031 224.164 35.0781C224.445 35.4479 224.654 35.8854 224.789 36.3906C224.924 36.8906 224.992 37.4375 224.992 38.0312V38.6797H218.68V37.5H223.547V37.3906C223.526 37.0156 223.448 36.651 223.312 36.2969C223.182 35.9427 222.974 35.651 222.688 35.4219C222.401 35.1927 222.01 35.0781 221.516 35.0781C221.188 35.0781 220.885 35.1484 220.609 35.2891C220.333 35.4245 220.096 35.6276 219.898 35.8984C219.701 36.1693 219.547 36.5 219.438 36.8906C219.328 37.2812 219.273 37.7318 219.273 38.2422V38.5703C219.273 38.9714 219.328 39.349 219.438 39.7031C219.552 40.0521 219.716 40.3594 219.93 40.625C220.148 40.8906 220.411 41.099 220.719 41.25C221.031 41.401 221.385 41.4766 221.781 41.4766C222.292 41.4766 222.724 41.3724 223.078 41.1641C223.432 40.9557 223.742 40.6771 224.008 40.3281L224.883 41.0234C224.701 41.2995 224.469 41.5625 224.188 41.8125C223.906 42.0625 223.56 42.2656 223.148 42.4219C222.742 42.5781 222.26 42.6562 221.703 42.6562ZM230.062 41.4688C230.406 41.4688 230.724 41.3984 231.016 41.2578C231.307 41.1172 231.547 40.9245 231.734 40.6797C231.922 40.4297 232.029 40.1458 232.055 39.8281H233.43C233.404 40.3281 233.234 40.7943 232.922 41.2266C232.615 41.6536 232.211 42 231.711 42.2656C231.211 42.526 230.661 42.6562 230.062 42.6562C229.427 42.6562 228.872 42.5443 228.398 42.3203C227.93 42.0964 227.539 41.7891 227.227 41.3984C226.919 41.0078 226.688 40.5599 226.531 40.0547C226.38 39.5443 226.305 39.0052 226.305 38.4375V38.1094C226.305 37.5417 226.38 37.0052 226.531 36.5C226.688 35.9896 226.919 35.5391 227.227 35.1484C227.539 34.7578 227.93 34.4505 228.398 34.2266C228.872 34.0026 229.427 33.8906 230.062 33.8906C230.724 33.8906 231.302 34.026 231.797 34.2969C232.292 34.5625 232.68 34.9271 232.961 35.3906C233.247 35.849 233.404 36.3698 233.43 36.9531H232.055C232.029 36.6042 231.93 36.2891 231.758 36.0078C231.591 35.7266 231.362 35.5026 231.07 35.3359C230.784 35.1641 230.448 35.0781 230.062 35.0781C229.62 35.0781 229.247 35.1667 228.945 35.3438C228.648 35.5156 228.411 35.75 228.234 36.0469C228.062 36.3385 227.938 36.6641 227.859 37.0234C227.786 37.3776 227.75 37.7396 227.75 38.1094V38.4375C227.75 38.8073 227.786 39.1719 227.859 39.5312C227.932 39.8906 228.055 40.2161 228.227 40.5078C228.404 40.7995 228.641 41.0339 228.938 41.2109C229.24 41.3828 229.615 41.4688 230.062 41.4688ZM236.5 30.5V42.5H235.055V30.5H236.5ZM236.156 37.9531L235.555 37.9297C235.56 37.3516 235.646 36.8177 235.812 36.3281C235.979 35.8333 236.214 35.4036 236.516 35.0391C236.818 34.6745 237.177 34.3932 237.594 34.1953C238.016 33.9922 238.482 33.8906 238.992 33.8906C239.409 33.8906 239.784 33.9479 240.117 34.0625C240.451 34.1719 240.734 34.349 240.969 34.5938C241.208 34.8385 241.391 35.1562 241.516 35.5469C241.641 35.9323 241.703 36.4036 241.703 36.9609V42.5H240.25V36.9453C240.25 36.5026 240.185 36.1484 240.055 35.8828C239.924 35.612 239.734 35.4167 239.484 35.2969C239.234 35.1719 238.927 35.1094 238.562 35.1094C238.203 35.1094 237.875 35.1849 237.578 35.3359C237.286 35.487 237.034 35.6953 236.82 35.9609C236.612 36.2266 236.448 36.5312 236.328 36.875C236.214 37.2135 236.156 37.5729 236.156 37.9531ZM250.953 38.8828H252.453C252.375 39.6016 252.169 40.2448 251.836 40.8125C251.503 41.3802 251.031 41.8307 250.422 42.1641C249.812 42.4922 249.052 42.6562 248.141 42.6562C247.474 42.6562 246.867 42.5312 246.32 42.2812C245.779 42.0312 245.312 41.6771 244.922 41.2188C244.531 40.7552 244.229 40.2005 244.016 39.5547C243.807 38.9036 243.703 38.1797 243.703 37.3828V36.25C243.703 35.4531 243.807 34.7318 244.016 34.0859C244.229 33.4349 244.534 32.8776 244.93 32.4141C245.331 31.9505 245.812 31.5938 246.375 31.3438C246.938 31.0938 247.57 30.9688 248.273 30.9688C249.133 30.9688 249.859 31.1302 250.453 31.4531C251.047 31.776 251.508 32.224 251.836 32.7969C252.169 33.3646 252.375 34.0234 252.453 34.7734H250.953C250.88 34.2422 250.745 33.7865 250.547 33.4062C250.349 33.0208 250.068 32.724 249.703 32.5156C249.339 32.3073 248.862 32.2031 248.273 32.2031C247.768 32.2031 247.323 32.2995 246.938 32.4922C246.557 32.6849 246.237 32.9583 245.977 33.3125C245.721 33.6667 245.529 34.0911 245.398 34.5859C245.268 35.0807 245.203 35.6302 245.203 36.2344V37.3828C245.203 37.9401 245.26 38.4635 245.375 38.9531C245.495 39.4427 245.674 39.8724 245.914 40.2422C246.154 40.612 246.458 40.9036 246.828 41.1172C247.198 41.3255 247.635 41.4297 248.141 41.4297C248.781 41.4297 249.292 41.3281 249.672 41.125C250.052 40.9219 250.339 40.6302 250.531 40.25C250.729 39.8698 250.87 39.4141 250.953 38.8828ZM253.906 38.3672V38.1875C253.906 37.5781 253.995 37.013 254.172 36.4922C254.349 35.9661 254.604 35.5104 254.938 35.125C255.271 34.7344 255.674 34.4323 256.148 34.2188C256.622 34 257.154 33.8906 257.742 33.8906C258.336 33.8906 258.87 34 259.344 34.2188C259.823 34.4323 260.229 34.7344 260.562 35.125C260.901 35.5104 261.159 35.9661 261.336 36.4922C261.513 37.013 261.602 37.5781 261.602 38.1875V38.3672C261.602 38.9766 261.513 39.5417 261.336 40.0625C261.159 40.5833 260.901 41.0391 260.562 41.4297C260.229 41.8151 259.826 42.1172 259.352 42.3359C258.883 42.5495 258.352 42.6562 257.758 42.6562C257.164 42.6562 256.63 42.5495 256.156 42.3359C255.682 42.1172 255.276 41.8151 254.938 41.4297C254.604 41.0391 254.349 40.5833 254.172 40.0625C253.995 39.5417 253.906 38.9766 253.906 38.3672ZM255.352 38.1875V38.3672C255.352 38.7891 255.401 39.1875 255.5 39.5625C255.599 39.9323 255.747 40.2604 255.945 40.5469C256.148 40.8333 256.401 41.0599 256.703 41.2266C257.005 41.388 257.357 41.4688 257.758 41.4688C258.154 41.4688 258.5 41.388 258.797 41.2266C259.099 41.0599 259.349 40.8333 259.547 40.5469C259.745 40.2604 259.893 39.9323 259.992 39.5625C260.096 39.1875 260.148 38.7891 260.148 38.3672V38.1875C260.148 37.7708 260.096 37.3776 259.992 37.0078C259.893 36.6328 259.742 36.3021 259.539 36.0156C259.341 35.724 259.091 35.4948 258.789 35.3281C258.492 35.1615 258.143 35.0781 257.742 35.0781C257.346 35.0781 256.997 35.1615 256.695 35.3281C256.398 35.4948 256.148 35.724 255.945 36.0156C255.747 36.3021 255.599 36.6328 255.5 37.0078C255.401 37.3776 255.352 37.7708 255.352 38.1875ZM264.859 35.375V42.5H263.414V34.0469H264.82L264.859 35.375ZM267.5 34L267.492 35.3438C267.372 35.3177 267.258 35.3021 267.148 35.2969C267.044 35.2865 266.924 35.2812 266.789 35.2812C266.456 35.2812 266.161 35.3333 265.906 35.4375C265.651 35.5417 265.435 35.6875 265.258 35.875C265.081 36.0625 264.94 36.2865 264.836 36.5469C264.737 36.8021 264.672 37.0833 264.641 37.3906L264.234 37.625C264.234 37.1146 264.284 36.6354 264.383 36.1875C264.487 35.7396 264.646 35.3438 264.859 35C265.073 34.651 265.344 34.3802 265.672 34.1875C266.005 33.9896 266.401 33.8906 266.859 33.8906C266.964 33.8906 267.083 33.9036 267.219 33.9297C267.354 33.9505 267.448 33.974 267.5 34ZM270.281 35.6719V45.75H268.828V34.0469H270.156L270.281 35.6719ZM275.977 38.2031V38.3672C275.977 38.9818 275.904 39.5521 275.758 40.0781C275.612 40.599 275.398 41.0521 275.117 41.4375C274.841 41.8229 274.5 42.1224 274.094 42.3359C273.688 42.5495 273.221 42.6562 272.695 42.6562C272.159 42.6562 271.685 42.5677 271.273 42.3906C270.862 42.2135 270.513 41.9557 270.227 41.6172C269.94 41.2786 269.711 40.8724 269.539 40.3984C269.372 39.9245 269.258 39.3906 269.195 38.7969V37.9219C269.258 37.2969 269.375 36.737 269.547 36.2422C269.719 35.7474 269.945 35.3255 270.227 34.9766C270.513 34.6224 270.859 34.3542 271.266 34.1719C271.672 33.9844 272.141 33.8906 272.672 33.8906C273.203 33.8906 273.674 33.9948 274.086 34.2031C274.497 34.4062 274.844 34.6979 275.125 35.0781C275.406 35.4583 275.617 35.9141 275.758 36.4453C275.904 36.9714 275.977 37.5573 275.977 38.2031ZM274.523 38.3672V38.2031C274.523 37.7812 274.479 37.3854 274.391 37.0156C274.302 36.6406 274.164 36.3125 273.977 36.0312C273.794 35.7448 273.56 35.5208 273.273 35.3594C272.987 35.1927 272.646 35.1094 272.25 35.1094C271.885 35.1094 271.568 35.1719 271.297 35.2969C271.031 35.4219 270.805 35.5911 270.617 35.8047C270.43 36.013 270.276 36.2526 270.156 36.5234C270.042 36.7891 269.956 37.0651 269.898 37.3516V39.375C270.003 39.7396 270.148 40.0833 270.336 40.4062C270.523 40.724 270.773 40.9818 271.086 41.1797C271.398 41.3724 271.792 41.4688 272.266 41.4688C272.656 41.4688 272.992 41.388 273.273 41.2266C273.56 41.0599 273.794 40.8333 273.977 40.5469C274.164 40.2604 274.302 39.9323 274.391 39.5625C274.479 39.1875 274.523 38.7891 274.523 38.3672Z" fill="black"/>
</svg>
