<svg width="92" height="41" viewBox="0 0 92 41" fill="none" xmlns="http://www.w3.org/2000/svg">
<rect x="1" y="1.5" width="38" height="38" rx="19" stroke="#FF3E54" stroke-width="2"/>
<path d="M18.8457 20.5024L23.3286 16.1926C23.4521 16.0743 23.52 15.916 23.52 15.7472C23.52 15.5783 23.4521 15.4201 23.3286 15.3016L22.9358 14.9241C22.8126 14.8054 22.6478 14.74 22.4723 14.74C22.2967 14.74 22.1322 14.8054 22.0088 14.9241L16.6711 20.0553C16.5473 20.1742 16.4795 20.3332 16.48 20.5021C16.4795 20.6719 16.5472 20.8306 16.6711 20.9496L22.0038 26.0759C22.1272 26.1946 22.2917 26.26 22.4674 26.26C22.643 26.26 22.8075 26.1946 22.9309 26.0759L23.3237 25.6984C23.5792 25.4527 23.5792 25.0528 23.3237 24.8073L18.8457 20.5024Z" fill="#202020"/>
<rect x="52" y="0.5" width="40" height="40" rx="20" fill="#FF3E54"/>
<path d="M73.1543 20.5024L68.6714 16.1926C68.5479 16.0743 68.48 15.916 68.48 15.7472C68.48 15.5783 68.5479 15.4201 68.6714 15.3016L69.0642 14.9241C69.1874 14.8054 69.3522 14.74 69.5277 14.74C69.7033 14.74 69.8679 14.8054 69.9912 14.9241L75.3289 20.0553C75.4527 20.1742 75.5205 20.3332 75.52 20.5021C75.5205 20.6719 75.4528 20.8306 75.3289 20.9496L69.9962 26.0759C69.8728 26.1946 69.7083 26.26 69.5326 26.26C69.3571 26.26 69.1925 26.1946 69.0691 26.0759L68.6763 25.6984C68.4208 25.4527 68.4208 25.0528 68.6763 24.8073L73.1543 20.5024Z" fill="white"/>
</svg>
